<svg id="Calque_2" data-name="Calque 2" xmlns="http://www.w3.org/2000/svg" viewBox="0 0 841.89 595.28"><defs><style>.cls-1{fill:#875a13;}.cls-2{fill:#d3942b;}.cls-3{fill:#fbbf60;stroke:#d3942b;}.cls-3,.cls-4{stroke-miterlimit:10;stroke-width:17px;}.cls-4{fill:none;stroke:#875a13;stroke-dasharray:4.97 49.72;}</style></defs><title>Plan de travail 10</title><g id="Calque_1" data-name="Calque 1"><polygon class="cls-1" points="622.62 262.7 420.94 31.71 219.27 262.7 622.62 262.7"/><path class="cls-2" d="M622.13,262.7l-201.68-231L326,262.7Z"/><path class="cls-1" d="M408.05,186.59l-1.19-2.07c-.29.86-.73,1.36-.53,1.78.37.75,1.12,1.89,1.73,2.09a3.7,3.7,0,0,0,2.82-.11c1.34-.83,1-3.13-.52-5s-4.12-3-6-2.54c-2.24.58-3.26,2.59-2.6,5.13,1.51,5.79,4.57,9.15,10.86,11.63,8.65,3.4,16.26,3.28,22.71.52a73.18,73.18,0,0,0,29.85-22.72,14.69,14.69,0,0,0,1.28-2.08,10.92,10.92,0,0,0,.52-1.72c-2-.38-3.72-.82-5.41-1-8.53-1.07-17.14-3.92-25.79-7.2a12.94,12.94,0,0,0-4.88-.8c-7.56.25-15.11.57-22.58,1-4.74.3-9.35.89-14,1.35-.4,0-.83,0-1.61,0a39.31,39.31,0,0,1-1.4-4c-.1-.4.45-1,.91-1,8.05-.4,16.21-.55,24.18-1.14a97,97,0,0,0,13-2.15,10,10,0,0,0,4-2.11c5.74-4.51,12.93-6.89,21-8.11a45.86,45.86,0,0,1,20.14,1.46c4,1.17,7.25,3.52,10.53,6.32,4.88,4.16,9.89,8.16,14.84,12.23a7.06,7.06,0,0,1,1.17,1c.5.62,1.28,1.46,1.23,1.92s-.9.76-1.54.78c-3.25.07-6.61-.12-9.8.08-2.64.16-2.87.92-1.92,3.57.46,1.28,1,2.56,1.37,3.84a10.89,10.89,0,0,0,3.24,5.15c1.42,1.27,2.25,2.83,2,4.31-.82,5.07.49,10.69,1.2,16.15.18,1.36.57,2.9-1.48,2.74a3.18,3.18,0,0,1-3.07-2.23q-3.45-8.37-7.17-16.74c-2-4.51-4.24-9-6.5-13.8a26.1,26.1,0,0,0-2.46,2.19,105.16,105.16,0,0,1-28.49,22.33c-4.82,2.65-9.88,5-16.12,5.58a36,36,0,0,1-21.26-4.26c-6.92-3.79-10.32-9.21-10.91-14.81-.35-3.26,1.3-5.17,4.51-5.51,2.48-.26,5,.74,7.3,3,3.45,3.48,3.49,7.8.06,8.77a5.2,5.2,0,0,1-4.76-1.39c-1.35-1.13-2.16-2.48-1.94-3.9.2-1.22,1.06-1.81,2.49-1.43a3.85,3.85,0,0,1,1.8,1.51c.26.46-.1,1-.19,1.59Zm42.08-34.86a48.67,48.67,0,0,0-6,2,38.15,38.15,0,0,0-5.78,3.6c-1.09.8-.57,1.87,1,2.92,6.6,4.34,13.14,5.42,20.33,6.42C453.56,162.31,450.72,157.53,450.13,151.73ZM493.26,166l-.07-.62c-5.93-4.17-10.65-10.23-18-12.92,3.54,6,3.68,10.75.54,14.55l.33.47Z"/><path class="cls-1" d="M385.08,145.87c-1.47-3-1.27-3.56,1.43-3.53a63.66,63.66,0,0,0,32.18-8.14,62.89,62.89,0,0,1,13-5.71c7.43-2.11,15.79-2.36,24.4-2,7.77.28,15.65,2.18,23.68,5a76.7,76.7,0,0,1,7.47,3.34c1.34.64,2.07,1.65,1.74,2.79s-.92,1.79-2.63,1.13a98.49,98.49,0,0,0-24.6-6.43c-5.39-.59-10.56-.33-15.8-.35-11.36-.05-19.43,5-28,9.14a50.55,50.55,0,0,1-18.65,4.54c-4.31.29-8.75.3-13.13.43A7.45,7.45,0,0,1,385.08,145.87Z"/><rect class="cls-3" x="88.32" y="257.25" width="665.24" height="265.01" rx="32.41"/><rect class="cls-4" x="88.32" y="257.25" width="665.24" height="265.01" rx="32.41"/><path class="cls-1" d="M141.68,348.94H185a3.59,3.59,0,0,0,2.42-.72,5.33,5.33,0,0,0,1.34-2.58h1.65v18.2h-1.65a5.24,5.24,0,0,0-1.34-2.57,3.54,3.54,0,0,0-2.42-.73H123v-1.65a5.24,5.24,0,0,0,2.57-1.34,3.54,3.54,0,0,0,.73-2.42V295.55a3.52,3.52,0,0,0-.73-2.42,5.33,5.33,0,0,0-2.57-1.35v-1.65h22v1.65a4.86,4.86,0,0,0-2.58,1.32,3.69,3.69,0,0,0-.72,2.45Z"/><path class="cls-1" d="M213.58,336v14.08h36.68a3.71,3.71,0,0,0,2.45-.71,5.11,5.11,0,0,0,1.37-2.59h1.44v17.07h-1.44a4.86,4.86,0,0,0-1.35-2.55,3.68,3.68,0,0,0-2.47-.75h-53.8V359.1a4.93,4.93,0,0,0,2.55-1.34,3.71,3.71,0,0,0,.75-2.48V308a3.59,3.59,0,0,0-.72-2.42,5.5,5.5,0,0,0-2.58-1.39v-1.45h52.2a3.78,3.78,0,0,0,2.5-.72,5.16,5.16,0,0,0,1.37-2.58h1.39v17.07h-1.39a5.16,5.16,0,0,0-1.37-2.59,3.84,3.84,0,0,0-2.5-.71H213.58v12.69h21.77a3.69,3.69,0,0,0,2.45-.72,5.41,5.41,0,0,0,1.42-2.58h1.39v16.66h-1.39a5.14,5.14,0,0,0-1.37-2.56,3.71,3.71,0,0,0-2.5-.74Z"/><path class="cls-1" d="M357.45,296.1,349,312.68l-1.45-.83a7.46,7.46,0,0,0,.06-.83c0-1.16-1-2.42-3-3.76a36.78,36.78,0,0,0-21.56-6.4,31.67,31.67,0,0,0-9.64,1.34,11.62,11.62,0,0,0-4.93,3.09,6.56,6.56,0,0,0-1.88,4.49c0,2.64,1.6,4.45,4.8,5.41a75.65,75.65,0,0,0,10.62,1.54l8.1.83a66.3,66.3,0,0,1,11.68,2.11,27.36,27.36,0,0,1,7.92,3.76,17.73,17.73,0,0,1,5.55,6.65,19.75,19.75,0,0,1,2,8.82,20.09,20.09,0,0,1-4.79,13.19q-4.33,5.27-13.47,7.78a53.54,53.54,0,0,1-14.59,1.91,61.9,61.9,0,0,1-27.6-6.7,14.65,14.65,0,0,0-3.46-1.35,4.34,4.34,0,0,0-2.11,1.14l-1.5-.77,7.64-17.28,1.49.72v.67a5.68,5.68,0,0,0,2.22,4.28q3.36,3,10.37,5.16a45.26,45.26,0,0,0,13.31,2.16,27.08,27.08,0,0,0,11.71-2.31,11.44,11.44,0,0,0,4.28-3.43,7.34,7.34,0,0,0,1.6-4.45c0-2.33-1.26-4-3.77-5q-2.62-1-10.62-1.91l-7.95-.82a108.82,108.82,0,0,1-11.3-1.58,28.31,28.31,0,0,1-6.6-2.4,17,17,0,0,1-7.37-7,18.71,18.71,0,0,1-2.43-9.6,19.5,19.5,0,0,1,6.14-14.76q8-7.69,24.14-7.69a54.59,54.59,0,0,1,12.59,1.37,95,95,0,0,1,14.54,5.05,16.19,16.19,0,0,0,3.67,1.19,4.26,4.26,0,0,0,2.52-1.19Z"/><path class="cls-1" d="M383.86,336v14.08h36.67a3.69,3.69,0,0,0,2.45-.71,5,5,0,0,0,1.37-2.59h1.44v17.07h-1.44a4.93,4.93,0,0,0-1.34-2.55,3.71,3.71,0,0,0-2.48-.75h-53.8V359.1a4.92,4.92,0,0,0,2.56-1.34,3.76,3.76,0,0,0,.74-2.48V308a3.59,3.59,0,0,0-.72-2.42,5.5,5.5,0,0,0-2.58-1.39v-1.45h52.2a3.81,3.81,0,0,0,2.51-.72,5.16,5.16,0,0,0,1.36-2.58h1.39v17.07H422.8a5.15,5.15,0,0,0-1.36-2.59,3.87,3.87,0,0,0-2.51-.71H383.86v12.69h21.77a3.71,3.71,0,0,0,2.45-.72,5.5,5.5,0,0,0,1.41-2.58h1.4v16.66h-1.4a5.22,5.22,0,0,0-1.36-2.56,3.73,3.73,0,0,0-2.5-.74Z"/><path class="cls-1" d="M491,339.81l8.72,12.74-1.19.88a3.76,3.76,0,0,0-2-.88c-.58,0-1.94.63-4.07,1.91A58,58,0,0,1,480,360.18a44,44,0,0,1-12.49,1.6q-14.13,0-23-6.76a28.22,28.22,0,0,1-8.05-9.69,29.77,29.77,0,0,1-3.2-13.67,29,29,0,0,1,5.88-18q9.24-12.18,28.32-12.18a45.22,45.22,0,0,1,12.56,1.6,57,57,0,0,1,12.51,5.73c2.13,1.27,3.49,1.91,4.07,1.91a3.85,3.85,0,0,0,2-.88l1.19.93L491,323.46l-1.13-.83a4.78,4.78,0,0,1,.1-.77,5.2,5.2,0,0,0,.05-.66q0-2.52-7-5.7a31.65,31.65,0,0,0-13.31-3q-9.39,0-15.47,4.94a18.1,18.1,0,0,0,0,28.55q6.14,4.89,15.47,4.89a32.12,32.12,0,0,0,14.6-3.67c3.78-1.92,5.67-3.61,5.67-5.05,0-.07-.05-.55-.15-1.45Z"/><path class="cls-1" d="M525.24,336.82v18.42a3.61,3.61,0,0,0,.73,2.44,5.41,5.41,0,0,0,2.58,1.42v1.44H508.12V359.1a4.93,4.93,0,0,0,2.55-1.34,3.71,3.71,0,0,0,.75-2.48V308a3.59,3.59,0,0,0-.72-2.42,5.5,5.5,0,0,0-2.58-1.39v-1.45H546a63.35,63.35,0,0,1,11.25.75,19.48,19.48,0,0,1,6.91,2.71q6.24,4.06,6.24,13.31,0,7-3.84,11t-12.41,5.7l10.94,15.23a33.54,33.54,0,0,0,4.77,5.74,8.39,8.39,0,0,0,4,1.93v1.44h-24.3V359.1c1.79-.48,2.69-1.25,2.69-2.32a7.14,7.14,0,0,0-1.66-3.44l-11.54-16.52Zm0-10.48h20.84a17.87,17.87,0,0,0,7-1q3.2-1.4,3.2-5.52,0-3.66-2.25-5.1t-8-1.45H525.24Z"/><path class="cls-1" d="M598,336v14.08h36.67a3.69,3.69,0,0,0,2.45-.71,5.11,5.11,0,0,0,1.37-2.59h1.44v17.07h-1.44a4.93,4.93,0,0,0-1.34-2.55,3.71,3.71,0,0,0-2.48-.75h-53.8V359.1a4.89,4.89,0,0,0,2.55-1.34,3.71,3.71,0,0,0,.75-2.48V308a3.59,3.59,0,0,0-.72-2.42,5.5,5.5,0,0,0-2.58-1.39v-1.45h52.2a3.77,3.77,0,0,0,2.5-.72,5.09,5.09,0,0,0,1.37-2.58h1.39v17.07h-1.39a5.08,5.08,0,0,0-1.37-2.59,3.82,3.82,0,0,0-2.5-.71H598v12.69h21.76a3.67,3.67,0,0,0,2.45-.72,5.41,5.41,0,0,0,1.42-2.58H625v16.66h-1.4a5.22,5.22,0,0,0-1.36-2.56,3.76,3.76,0,0,0-2.51-.74Z"/><path class="cls-1" d="M681.13,313.24v42a3.67,3.67,0,0,0,.72,2.45,5.41,5.41,0,0,0,2.58,1.42v1.44H664V359.1a4.89,4.89,0,0,0,2.55-1.34,3.71,3.71,0,0,0,.75-2.48v-42h-17a3.73,3.73,0,0,0-2.5.74,5.19,5.19,0,0,0-1.37,2.56H645V299.47h1.39a5,5,0,0,0,1.32,2.55,3.68,3.68,0,0,0,2.5.75h47.92a3.78,3.78,0,0,0,2.5-.72,5.16,5.16,0,0,0,1.37-2.58h1.39v17.07H702a5.27,5.27,0,0,0-1.37-2.56,3.73,3.73,0,0,0-2.5-.74Z"/><path class="cls-1" d="M125,482.05V434.8a3.54,3.54,0,0,0-.73-2.42,5.6,5.6,0,0,0-2.57-1.4v-1.44h33.89q10.56,0,16.66,2.63a23.07,23.07,0,0,1,12.32,12.28,34.39,34.39,0,0,1,2.64,14q0,14.81-8.83,22.43a24.16,24.16,0,0,1-9.36,4.93,50,50,0,0,1-13.43,1.52H121.72v-1.44a4.93,4.93,0,0,0,2.55-1.34A3.71,3.71,0,0,0,125,482.05Zm13.82-5.21h14.75q10.17,0,14.76-4.64,4.78-4.84,4.79-13.77t-4.79-13.78a14.12,14.12,0,0,0-5.88-3.53,30,30,0,0,0-8.88-1.11H138.84Z"/><path class="cls-1" d="M213.17,462.76v14.08h36.68a3.77,3.77,0,0,0,2.45-.71,5.11,5.11,0,0,0,1.36-2.59h1.45v17.07h-1.45a4.86,4.86,0,0,0-1.34-2.55,3.68,3.68,0,0,0-2.47-.75h-53.8v-1.44a4.93,4.93,0,0,0,2.55-1.34,3.71,3.71,0,0,0,.75-2.48V434.8a3.54,3.54,0,0,0-.73-2.42,5.6,5.6,0,0,0-2.57-1.4v-1.44h52.2a3.78,3.78,0,0,0,2.5-.72,5.16,5.16,0,0,0,1.37-2.58h1.39v17.07h-1.39a5.16,5.16,0,0,0-1.37-2.59,3.84,3.84,0,0,0-2.5-.71H213.17V452.7h21.77a3.71,3.71,0,0,0,2.45-.72,5.41,5.41,0,0,0,1.42-2.58h1.39v16.66h-1.39a5.22,5.22,0,0,0-1.37-2.56,3.73,3.73,0,0,0-2.5-.74Z"/><path class="cls-1" d="M320.81,454.45,310.2,463V481.9a3.61,3.61,0,0,0,.75,2.45,5,5,0,0,0,2.55,1.31v1.65h-22v-1.65a5.24,5.24,0,0,0,2.58-1.34,3.54,3.54,0,0,0,.73-2.42V422.27a3.48,3.48,0,0,0-.73-2.38,5.32,5.32,0,0,0-2.58-1.34V416.9h22v1.65a4.86,4.86,0,0,0-2.58,1.32,3.6,3.6,0,0,0-.72,2.4v24.64l29-23.66c1.34-1.1,2-2,2-2.63,0-1-1-1.69-3-2.07V416.9H367v1.65a8.69,8.69,0,0,0-2.58.83c-.52.31-2,1.48-4.49,3.51l-4,3.3L332,445.42l27.14,32.66a44.41,44.41,0,0,0,5.44,5.85,9,9,0,0,0,4.21,1.73v1.65H341.28v-1.65c1.82-.38,2.73-1,2.73-2q0-.72-2.47-3.82Z"/><path class="cls-1" d="M424.35,462.14H392.06V482a3.69,3.69,0,0,0,.72,2.45,5.41,5.41,0,0,0,2.58,1.42v1.44H374.93v-1.44a4.92,4.92,0,0,0,2.56-1.34,3.76,3.76,0,0,0,.74-2.48V434.8a3.59,3.59,0,0,0-.72-2.42,5.58,5.58,0,0,0-2.58-1.4v-1.44h20.43V431a5.16,5.16,0,0,0-2.58,1.37,3.66,3.66,0,0,0-.72,2.44v16.88h32.29V434.79a3.64,3.64,0,0,0-.7-2.42,5.5,5.5,0,0,0-2.6-1.39v-1.44h20.42V431a5.17,5.17,0,0,0-2.57,1.37,3.64,3.64,0,0,0-.73,2.45V482a3.64,3.64,0,0,0,.73,2.45,5.42,5.42,0,0,0,2.57,1.42v1.44H421.05v-1.44a4.86,4.86,0,0,0,2.55-1.35,3.69,3.69,0,0,0,.75-2.48Z"/><path class="cls-1" d="M468.71,462.76v14.08h36.68a3.77,3.77,0,0,0,2.45-.71,5.11,5.11,0,0,0,1.36-2.59h1.45v17.07H509.2a4.86,4.86,0,0,0-1.34-2.55,3.68,3.68,0,0,0-2.47-.75h-53.8v-1.44a4.93,4.93,0,0,0,2.55-1.34,3.71,3.71,0,0,0,.75-2.48V434.8a3.54,3.54,0,0,0-.73-2.42,5.6,5.6,0,0,0-2.57-1.4v-1.44h52.2a3.78,3.78,0,0,0,2.5-.72,5.16,5.16,0,0,0,1.37-2.58h1.39v17.07h-1.39a5.16,5.16,0,0,0-1.37-2.59,3.84,3.84,0,0,0-2.5-.71H468.71V452.7h21.77a3.71,3.71,0,0,0,2.45-.72,5.41,5.41,0,0,0,1.42-2.58h1.39v16.66h-1.39A5.22,5.22,0,0,0,493,463.5a3.73,3.73,0,0,0-2.5-.74Zm26.57-54.52v1.39a3.73,3.73,0,0,0-3,1.39l-7.32,9a1.2,1.2,0,0,0-.31.82c0,.55.36.83,1.08.83h.21V423h-11.2v-1.39a3.21,3.21,0,0,0,1.76-.36,3.41,3.41,0,0,0,1-1.5l3.4-8.41a1.94,1.94,0,0,0,.21-.77c0-.55-.48-.88-1.45-1v-1.39Z"/><path class="cls-1" d="M551.89,428.3q13.79,0,23,7,11,8.46,11,23.57,0,14.19-11,22.65-9.09,7-22.87,7t-22.87-7q-11-8.46-11-23.11,0-14.81,11-23.11Q538.26,428.45,551.89,428.3Zm.05,10.94q-8.94,0-14.57,5.72a19.94,19.94,0,0,0,0,26.88q5.64,5.78,14.62,5.78t14.57-5.78a18.07,18.07,0,0,0,5.21-13.16q0-8.51-5.21-13.72Q560.88,439.35,551.94,439.24Z"/><path class="cls-1" d="M611.8,463.58V482a3.66,3.66,0,0,0,.72,2.44,5.41,5.41,0,0,0,2.58,1.42v1.44H594.67v-1.44a4.92,4.92,0,0,0,2.56-1.34,3.71,3.71,0,0,0,.75-2.48V434.8a3.59,3.59,0,0,0-.73-2.42,5.58,5.58,0,0,0-2.58-1.4v-1.44h37.66q11.19,0,16.87,3.35a13.57,13.57,0,0,1,5.16,5.57,17.56,17.56,0,0,1,1.85,8.1q0,8.63-5.88,12.82t-18,4.2Zm0-10.47h19.7q5.43,0,7.54-1,3.09-1.5,3.09-5.52T639,441c-1.38-.68-3.89-1-7.54-1H611.8Z"/><path class="cls-1" d="M719.09,434.75l-7,13.46-1.24-.67a3.44,3.44,0,0,0-1.08-2.68,22.6,22.6,0,0,0-8.67-4.33,40.38,40.38,0,0,0-11.61-1.7,26.09,26.09,0,0,0-8.87,1.39q-5.56,2-5.57,5.83a3.68,3.68,0,0,0,2.68,3.58q2.68,1.06,10.37,1.68l8.15.62q10.68.82,16.25,4.12a15.79,15.79,0,0,1,7.63,13.67q0,8.82-7.94,13.93-7.58,4.91-20.53,4.9A60.4,60.4,0,0,1,666.48,483a3.65,3.65,0,0,0-1.4-.36,2.4,2.4,0,0,0-1.9,1.24l-1.29-.52,5.93-14.13,1.29.51v.42a2.94,2.94,0,0,0,1,2.27q2.58,2.27,8.92,3.94a48.84,48.84,0,0,0,12.54,1.68,31,31,0,0,0,9.8-1.44q5.36-1.75,5.36-5.68,0-3.15-3.71-4.38a45,45,0,0,0-8.93-1.4l-8.09-.67a68.92,68.92,0,0,1-10-1.34,20.58,20.58,0,0,1-6-2.42,14.25,14.25,0,0,1-5.15-5.62,16.59,16.59,0,0,1-1.86-7.79,16,16,0,0,1,8.15-14.5q7.43-4.53,18.36-4.54a44.32,44.32,0,0,1,11.07,1.32,73,73,0,0,1,12.25,4.61,8.56,8.56,0,0,0,2.94,1,3.61,3.61,0,0,0,2.11-1.13Z"/></g></svg>