<svg xmlns="http://www.w3.org/2000/svg" viewBox="0 0 1920 1080"><defs><style>.cls-1{fill:#bf7c22;}.cls-2{fill:#ab6230;}.cls-3{font-size:60px;fill:#fff;font-family:Copperplate;}.cls-4{fill:#ddc8c2;}.cls-5{fill:#cfbdb7;}.cls-6{fill:#f5ded6;}.cls-7{fill:#c4b5ad;}.cls-8{fill:#f5ddbc;}.cls-9{fill:#e9d4cc;}.cls-10{fill:#b7a8a1;}.cls-11{fill:#2c2c23;}.cls-12{fill:#764531;}.cls-13{fill:#9c3315;}.cls-14{fill:#3c83b0;}.cls-15{fill:#e1f0f2;}.cls-16{fill:#e17140;}.cls-17{fill:#a01915;}.cls-18{fill:#5ca4c8;}.cls-19{fill:#3575a4;}.cls-20{fill:#c1aea8;}.cls-21{fill:#ecece5;}.cls-22{fill:#c2743c;}.cls-23{fill:#7b5a2d;}.cls-23,.cls-24{stroke:#662e2e;stroke-miterlimit:10;stroke-width:2px;}.cls-24{fill:#c99c4f;}</style></defs><title>momies &amp;quot;temps écoulé&amp;quot;</title><g id="Calque_1" data-name="Calque 1"><rect class="cls-1" width="1920" height="1080"/><rect class="cls-2" y="927.94" width="1920" height="152.06"/><text class="cls-3" transform="translate(625.83 301.43)">le temps est écoulé ! <tspan x="-4.98" y="72">Dommage vous restez </tspan><tspan x="122.61" y="144">coincés ici ... </tspan></text></g><g id="momie"><path class="cls-4" d="M1416,423.24c-1.6.43-1.77-4.13-5.07-.25-7,8.27-15.7,15.17-23.69,22.63.73-9.82-6.75-16.62-9.67-25.18a82,82,0,0,1-2.94-44.48c9.83-4.24,15.61-12.92,22.44-20.46,17.42-10.36,31-25.75,47.91-36.83,6.84-4.48,14.72-7.79,19.91-14.6,15,1,26.24,10.62,38.43,17.67,6.59,3.81,14,6.93,19.06,13.17-14.22,10.92-29.52,20.17-45.16,28.88,0,3.65-2.92,4.93-5.37,6.83-18.18,14.11-36.79,27.75-51.55,45.72C1416,416.87,1416.38,420.29,1416,423.24Z"/><path class="cls-5" d="M1397.14,248.61c-9,1.38-17.72-2.14-26.67-1.92-.4-15.24,6.72-26,19.85-33.1,1.69-.08,3.68.39,5-.34,23.71-13.23,51.36-15,75.77-26.14,12.53,2.33,24.53-1.83,36.74-3.15s24.67-1,37-1.05c-22.15,9.57-43.21,20.94-62.71,35.38-8.69,6.43-15.07,15.71-25.28,20.15-4.79-.59-8.44,2.24-12.42,4.1-15-5.38-29.67-.22-44.46,1.12C1398,243.85,1397.37,246.52,1397.14,248.61Z"/><path class="cls-4" d="M1918.47,476.79q-.06,6.36-.11,12.71L1903,510.29c-2.75-1-2.75-1-2.56,3.55l.32.18c-2.33.07-4.94-3-6.92.94-2.13,4.23-6.17,4.73-10.37,4.57-8.79-4.76-15.92-12.63-26.41-14.21-8.49-11.8-21.65-17.88-32.63-26.62l-24.26-27.38c2.91-4.73,3.63-12.07,9.78-13.16,7-1.24,11.2-5.53,15.93-9.66,2.37,3.87-4.14,8.95-.79,10.53,9.06,4.26,15.8,12.38,25.73,14.93,5.63,3.13,11.16,6.46,16.92,9.32,3.07,1.52,6.31,5.07,10,.87C1889.82,473.14,1904,475.44,1918.47,476.79Z"/><path class="cls-6" d="M1918.39,342.86q0,9.51.1,19c-7.85-1-14.75,3.48-22.36,3.88l-8.31,2c-7.56-1.44-12.79,3.79-18.59,6.89-6.16,3.28-6.63,6.93.86,9.85,5.93,2.31,11.15,6.63,18.05,6,8.93,7.08,19.14,9.16,30.24,7.73q0,11.61,0,23.21c-13.95.31-26.14-5.76-38.64-10.69-9.22-6.36-15.81-16.06-26.37-20.7-4.73-10.43,0-22.83-6.84-32.82-1-10.58,7.13-7.35,12.54-8.21,3-.14,6.14.22,9-.55,3.48-.94,7.62-2.36,7.07-7.1-.52-4.51-4.52-4.14-7.87-4.27-6-5.44-15.79-4.48-20.35-12.26,4.38,2.38,9.5,2.43,11.29-2.09,2.72-6.83,7.56-6.42,12.93-6.25,1.79,1.69,3.93,1.77,6.18,1.38,6.9-.55,13.71,5.19,20.69.32,4.83,1.88,7.88,7.71,14.15,6.38l.32.43C1914.13,331.06,1904.48,340.89,1918.39,342.86Z"/><path class="cls-7" d="M1604.61,139.47c2.83.7,6.08-.13,8.44,2.3-17.25,4.85-35.22,5.61-52.67,9.88a359.09,359.09,0,0,0-89.29,35.46c-24.41,11.13-52.06,12.91-75.77,26.14-1.32.73-3.31.26-5,.34,11.35-20.66,30.76-31.55,51-40.69,37-16.67,76.64-24,116.28-31.15C1573.23,139.61,1588.92,139.56,1604.61,139.47Z"/><path class="cls-5" d="M1918.31,653.23c-10.07-6.84-20.61-11.59-33.93-6.4,4.91-35.57,3.45-69.1-14.85-100q.93-2.28,1.87-4.58c8.71-2.38,16.82-5.67,21.38-14.28,10.75,26.32,20.29,53,25.42,81.1Q1918.26,631.16,1918.31,653.23Z"/><path class="cls-5" d="M1837.87,1074c.5,1.87,1,3.75,1.48,5.62l-124.68.12c-10.21-16.47-21.08-32.68-22.51-52.9a16.38,16.38,0,0,1,9.88,1.56c11.3,6.13,22.46,12.57,34,18.1,11.79,5.63,22.8,13.78,36.85,13.17,7.3,8.7,28.32,13.83,40.73,9.93.86,4.65,4.45,4.37,7.9,4.37C1827,1074,1832.43,1074,1837.87,1074Z"/><path class="cls-8" d="M1134.16,546.57c-3.06-10.62-6.31-21.18-9.1-31.86-1.17-4.49,1.17-8.12,3.78-11.93,5.72-8.36,10.66-17.24,15.92-25.91,2.5-.44,3.94-1.83,4.06-4.44l.33-3.5c17-11.32,35.28-14.32,54.93-8.45q-2.08,9.15-4.18,18.31c-8.62-.77-13.84,3.44-17.66,10.91-4.08,7.95-7.45,17.14-19.85,15.12-2.46-.4-7.4,2.1-4.59,7.3-5.78,7-4.16,17-9.94,24.14-2.34,2.87-3.9,6.36-7.3,8.27-3-12.56-3.94-25.67-10.5-37.36C1127.78,520.71,1137.5,533,1134.16,546.57Z"/><path class="cls-6" d="M1918.47,476.79c-14.47-1.35-28.65-3.65-40.75-12.64-11.33-7.32-17.66-19.33-26.86-28.65-4.35-5.57-3.37-15.14-12.71-17,5.31-7.7,4.34-18.53,12.39-24.86,8.47,9.76,14.49,21.87,26.82,27.91a101.46,101.46,0,0,0,41.12,19.87Z"/><path class="cls-7" d="M1397.07,355.5c-6.83,7.54-12.61,16.22-22.44,20.46-8-10.64-6.62-22.8-5.63-34.89,10.8-20,23.31-38.89,36.36-57.46,4.91,0,9.88-.35,14.47,2,0,6.84-4.51,11.92-6.91,17.82C1406,320.28,1398.42,336.94,1397.07,355.5Z"/><path class="cls-4" d="M1405.36,283.61c-13,18.57-25.56,37.47-36.36,57.46-2.38-19.79-4.09-39.58-.41-59.41C1380.84,282.43,1393.3,279.21,1405.36,283.61Z"/><path class="cls-9" d="M1199.9,478.79q2.08-9.15,4.18-18.31c6.31-.47,12.82-1.53,16.45,5.71,1.21,16.79-6,29-20.31,37.33-3.14,2.07-7.37,3-8.18,7.56l-27.1.45C1180.32,504.59,1192.55,494.3,1199.9,478.79Z"/><path class="cls-5" d="M1555.23,1069.88l2.64,10-66.66.14L1475,1061.74c5.7.92,10.9-1.8,16.41-2.25,8.38,6.85,18.3,6.54,28.26,6.09,4.51,3.69,9.73,2,14.74,2C1540.91,1072.16,1548.3,1068.94,1555.23,1069.88Z"/><path class="cls-7" d="M1200.22,503.52c14.35-8.31,21.52-20.54,20.31-37.33l8.08,4.36.72,7.67c-1,2.52-2,5.08-3.11,7.55-1.69,3.7,0,4.67,3.43,5.2,11,1.67,22.32-5.41,25.9-16.58l2.16-.59c7,4.19,4.37,8.84.4,13.24-2,2.2-4.56,3.88-6.87,5.8l-.2.13a71.28,71.28,0,0,0-20.24,6.3c-6-.25-13.19-2.27-12.41,8C1212.44,505.55,1204.88,511.52,1200.22,503.52Z"/><path class="cls-4" d="M1918.38,398.24c-11.1,1.43-21.31-.65-30.24-7.73q-.17-11.38-.32-22.76l8.31-2c6.51,6.6,13.53,12.51,22.22,16.11Z"/><path class="cls-4" d="M1918.48,441.45a101.46,101.46,0,0,1-41.12-19.87c3.42-3,1.75-7.18,2.37-10.82,12.5,4.93,24.69,11,38.64,10.69Q1918.42,431.46,1918.48,441.45Z"/><path class="cls-8" d="M1255.55,474.39c-3.58,11.17-14.85,18.25-25.9,16.58-3.48-.53-5.12-1.5-3.43-5.2,1.14-2.47,2.08-5,3.1-7.55a12.38,12.38,0,0,0,1.82-.13,3.79,3.79,0,0,0,4.14-1.31l18.12-2.71Z"/><path class="cls-7" d="M1918.35,381.88c-8.69-3.6-15.71-9.51-22.22-16.11,7.61-.4,14.51-4.89,22.36-3.88Q1918.42,371.9,1918.35,381.88Z"/><path class="cls-4" d="M1918.39,342.86c-13.91-2-4.26-11.8-6-17.84,4,1.87,2.24,7.38,6,9.41C1918.42,337.24,1918.4,340.05,1918.39,342.86Z"/><path class="cls-4" d="M1812.86,832.08c1.79,2.92,4.06,6.15,3.07,9.45-2.72,9.06.92,18-.18,27l-8-18.41v14.47l0,0c-7.39-.25-8.93,7.72-14.36,10.23-11.67,1.73-22.92,5.84-34.83,6.27l-40.83-6.16c-.4-1.7-1-3.25-2.91-3.82-15-4.5-28.92-12.12-44.55-14.62-13-6.21-27.15-7.86-41.07-10.44-17.62-5.49-35.89-6.93-54.13-7.9-7.25-.39-15-2.23-22,1.83l-30-12.28c.45-2.75.91-5.5,1.36-8.26,2.84,1.08,5.72,2,8.5,3.25,29.62,12.85,59.43,12.81,88.78-.12,7.87-3.47,15.34-6.92,24-7.42l43,8.27c5.49,6.21,14,4.87,20.62,8.15,12.83,2.92,25.38,7.56,38.87,6.61,2.87,2.64,6.45,1.4,9.74,1.8C1776.93,842.28,1794.63,835.29,1812.86,832.08Z"/><path class="cls-6" d="M1421.75,675.52c-3.64,19-2.48,38.92-8.56,57.36-6.82,20.66-4,39.52,6.48,57.73,3.29,5.72.1,7.79-4,10-6.38,0-10.61,4.61-14.64,8.29-7,6.39-9.82,2.89-11.73-3.76-2.68-9.36-5.36-18.77-5.2-28.67-2.37-15.52,1.78-30.14,5.59-45,5.37-20.92,6.19-42.37,5.34-63.89-.39-16.88-.32-33.83-8.34-49.42-.54-8.32-1.3-16.57-7.75-22.89,0-10.87-8.49-18.51-10.85-28.49,9-8.51,18-3.41,26.89.14,12.88,15.33,19.57,33.35,23,52.8,3.34,8.78-.37,18.52,3.7,27.2Q1421.7,661.25,1421.75,675.52Z"/><path class="cls-7" d="M1645.65,815.15c-8.61.5-16.08,4-24,7.42-29.35,12.93-59.16,13-88.78.12-2.78-1.21-5.66-2.17-8.5-3.25-5.76-3.15-3.82-9.87-6.67-14.37-.53-5.14-1.52-10.37,2.64-14.67,14.28.07,28.58-.21,42.85.31,13.31.49,25.92-4.29,39.09-4.37,30.12-3,60.17-6.86,90.55-5.72-.38,3.51-2.62,5-5.76,6.19-12.91,5.08-22.87,15.17-35.32,21.1C1648.82,809.32,1645.52,810.9,1645.65,815.15Z"/><path class="cls-6" d="M1523.06,827.7l30,12.28c10.9,8.07,22.73,14.56,34.81,20.63,10.32,8.89,20.75,17.65,32.51,24.63,7.38,11.08,17.54,19.58,26.81,28.91,4.46,7.73,8.61,15.67,14.55,22.44-1.5,8.56,4.65,16.4,2.37,25l-10,4.89c-.35-2.67-.69-5.14-2.44-7.58-31.28-43.59-70.12-75.88-125.08-84.28C1514.33,859.85,1515.75,844,1523.06,827.7Z"/><path class="cls-6" d="M1598.49,983.93c2.23,25.31,11,48.75,21.83,73.3-12.18-3.09-20.06,1.22-25.14,12.09-12.32-25.61-15-52.66-19.57-79.21-.48-1.24-1-2.47-1.45-3.71-3.37-15.88-11.08-28.87-25.07-37.68a9.62,9.62,0,0,0-5.45-8.17c-16.09-8.61-33-15.1-51.59-11.78-8.53,1.53-16.88,1.26-25.34,1.3,8.58-10.28,22.62-9.47,32.94-16.2,17.24-.25,34.6-3.8,51.61,1.93,4.66,3.22,9.42,6.32,14,9.69,6.11,4.54,10.39,11.69,18.72,13.06l12.48,35.12Q1597.45,978.8,1598.49,983.93Z"/><path class="cls-7" d="M1526.62,874.66c55,8.4,93.8,40.69,125.08,84.28,1.75,2.44,2.09,4.91,2.44,7.58.38,3-2.26,4.52-3.15,6.88l-14.09,3.83c5.43-4.58,2.36-9.31.23-14-8.48-18-24.64-27.58-40.87-37.05-5.78-2.72-11.39-5.95-17.38-8-9.8-3.42-19.4-7.84-30.06-8.2-8.12-5-17.12-6.26-26.43-6.19C1521.83,893.75,1520.65,883.69,1526.62,874.66Z"/><path class="cls-9" d="M1466.71,930.07c8.46,0,16.81.23,25.34-1.3,18.6-3.32,35.5,3.17,51.59,11.78a9.62,9.62,0,0,1,5.45,8.17c-1.84.16-3.44.71-4.26,2.55l-7.78-1.13c-1.1-3.43-4-4.76-7-5.16-13.44-1.78-26.61-6.2-40.44-4.42-12.86-.55-25.39,1-37.35,6l2.55-6.14c1.76-.8,3.53-1.6,3.71-3.91a8.55,8.55,0,0,1,1.82-.22l2.49-2.09-.11,0c2.79,0,4.18-1.34,4.18-4.13Z"/><path class="cls-4" d="M1522.39,903.73c9.31-.07,18.31,1.19,26.44,6.19q1.22,2.94,2.44,5.87c-17-5.72-34.38-2.17-51.62-1.92C1506.32,908.44,1514.78,907,1522.39,903.73Z"/><path class="cls-6" d="M1466.85,930.11c0,2.79-1.39,4.16-4.18,4.13A6.72,6.72,0,0,1,1466.85,930.11Z"/><path class="cls-6" d="M1462.78,934.21l-2.49,2.09C1461.11,935.6,1462,934.91,1462.78,934.21Z"/><path class="cls-5" d="M1368.1,566.83c2.36,10,10.84,17.62,10.85,28.5-3,2.22-2.17,5.52-2.35,8.53-9.87,4.59-16,12.22-18.63,22.75-13.85,5.32-22.45,16.34-30.44,28a38.77,38.77,0,0,1-28.9-12.18c-.19-1.94-1.2-5.12-.43-5.63,8.12-5.41,3.8-12.17,2.44-18.63l12.21-10.26c10.78-3.34,18.65-11.12,27.18-17.87a9.87,9.87,0,0,0,3.81-8.87c2.41,1.32,4.43,1.91,7.26,0,8-5.28,7.23-11.5,2.89-18.48C1359.49,561.38,1363.33,565.71,1368.1,566.83Z"/><path class="cls-6" d="M1312.85,607.93l-12.21,10.26c-6.71.85-11.71,6.66-18.78,6.45C1266.6,621,1259,613.35,1257.17,600c4.44-2.5,10.42-2.68,12.69-8.43,13.88-4.61,23.45-14.27,31-26.35,9.47-5.81,9-16.32,11.9-25.22,10.27,2.55,20.7,4.83,25,16.43-.64,2.24-1.29,4.48-1.93,6.72C1331.9,580,1322.85,594.19,1312.85,607.93Z"/><path class="cls-9" d="M1269.86,591.54c-2.27,5.75-8.25,5.93-12.69,8.43-8-2.84-11.3-9.7-14.26-16.82-2.42-11.44-4.32-22.93-3.88-34.69a67.55,67.55,0,0,0,4.11-20.6c3.48-11.44,6.93-22.88,7.9-34.89l.2-.13c9,1.62,13.86,7,14.77,16-2.67,9.29-1.54,18.91-2.5,28.3C1261.59,555.89,1268.83,573.32,1269.86,591.54Z"/><path class="cls-9" d="M1386.7,618.21c8,15.59,8,32.54,8.34,49.42-15.23,6.66-29.53,1.43-43.71-3.69-3.82-1.37-7.46-3-11.56-3.13,6.5-4.29,16.12-4.29,18.92-13.7,14.34-2.2,17.93-14.8,24.1-24.9Z"/><path class="cls-7" d="M1212.33,548.23c.71,9.91,3.94,19.27,6.59,28.72a43.85,43.85,0,0,1,1.75,14.07c-.57,11.82-3.72,13.65-13.1,7.35-3.84-2.57-8.39-2.37-12.39-3.87-.87-3.63,2-5,3.76-6.86,4.77-5.21,6.36-10.72,4-17.79a139.75,139.75,0,0,1-6.71-58.35c4.81.93,3.82,4.8,3.73,7.91a10.61,10.61,0,0,0,6.08,10.48C1208.09,536,1208.7,542.65,1212.33,548.23Z"/><path class="cls-9" d="M1212.33,548.23c-3.63-5.58-4.24-12.21-6.29-18.34,13.15-2.6,9.36-14.45,12.35-22.6-.78-10.29,6.39-8.27,12.41-8l.12,28.58c-3.57,6.36-1.09,14-4.24,20.42l-4.14,6.64C1218,554.44,1216.06,550,1212.33,548.23Z"/><path class="cls-10" d="M1358.7,647.11c-2.81,9.41-12.43,9.41-18.93,13.7a17.69,17.69,0,0,1-12.24-6.17c8-11.69,16.59-22.71,30.44-28Q1358.35,636.86,1358.7,647.11Z"/><path class="cls-5" d="M1218.39,507.29c-3,8.15.8,20-12.35,22.6a10.61,10.61,0,0,1-6.08-10.48c.09-3.11,1.08-7-3.73-7.91l-4.19-.41c.81-4.6,5-5.5,8.18-7.57C1204.88,511.52,1212.44,505.55,1218.39,507.29Z"/><path class="cls-7" d="M1222.54,554.9l4.14-6.64,12.35.2c-.44,11.76,1.46,23.25,3.88,34.69C1233.34,575.73,1226,566.7,1222.54,554.9Z"/><path class="cls-7" d="M1199.9,478.79c-7.35,15.51-19.58,25.8-35,32.74l-7.15.58c-2.8-5.19,2.14-7.69,4.6-7.29,12.4,2,15.77-7.17,19.85-15.12C1186.06,482.23,1191.28,478,1199.9,478.79Z"/><path class="cls-4" d="M1281.86,624.64c7.07.21,12.07-5.6,18.78-6.45,1.36,6.46,5.68,13.22-2.44,18.63-.77.51.24,3.69.43,5.63C1292.68,636.85,1286.55,631.42,1281.86,624.64Z"/><path class="cls-7" d="M1134.16,546.57c3.34-13.57-6.38-25.86-4.1-39.4,6.56,11.69,7.51,24.8,10.5,37.36C1138.49,545.4,1136.72,547.23,1134.16,546.57Z"/><path class="cls-6" d="M1428.18,991.16c-.57-10.27-.43-20.28,10-26.41,7.45,6.39,13.67,14.21,22.35,19.16,13.59,8.45,27.07,17.12,43.2,20.1,8.16,2,16.21,4.54,24.76,4.17,9.59-.14,19.28,1.27,28.67-1.87,8.2-2.88,11.66.15,10.76,8.63l-4.09,5.85a44.52,44.52,0,0,0-22.86,4c-8.68,1.69-17.37-.47-26,.07-3.9.24-9.22-2.48-11.05,3.93-5.53,1.94-5.49-6.29-9.54-5.64-11.7,1.88-21.89-4.31-33-5.43-7.61-.76-11.91-9.14-20-8.77l-1.32-2-1.92-2.59-3.76-2.81C1433.53,997.28,1430.64,994.35,1428.18,991.16Z"/><path class="cls-4" d="M1441.29,1008.9c8.13-.37,12.43,8,20,8.77,11.1,1.12,21.29,7.31,33,5.43,4-.65,4,7.58,9.54,5.64,9.63,4.61,20.39,3.77,30.46,6.27,7.59-1,15.18,3.34,22.77,0,2,8.19,4.24,16.37.17,24.6l-20.24.22c-2.86-3.47-6.73-2-10.27-2.11-6.29-4.54-12.92-7.37-20.76-4.18-.21-2.16-1.13-4.25-3.27-4.58-10.76-1.68-18.59-10.55-29.46-11.87-5.77-3.52-10.56-9.22-18.34-8.35-.09-2.63-1-4.44-4.07-4.24C1448.81,1018.58,1442.57,1015.26,1441.29,1008.9Z"/><path class="cls-9" d="M1473.26,1037.07c10.87,1.32,18.7,10.19,29.46,11.87,2.14.33,3.06,2.42,3.27,4.58l-14.6,6c-5.51.45-10.71,3.17-16.41,2.25-8.27-4.34-12.3-11.37-13.07-20.49C1466.44,1041.89,1469.78,1039.27,1473.26,1037.07Z"/><path class="cls-10" d="M1473.26,1037.07c-3.48,2.2-6.82,4.82-11.35,4.18-3.73-3.4-7.78-6.61-7-12.53C1462.7,1027.85,1467.49,1033.55,1473.26,1037.07Z"/><path class="cls-8" d="M1847,253.68c2.64-.11,5.44-1.25,7.66,1.23-4.57.64-7.68,3.71-11.3,6.22-10.34,7.17-13.35,19-19.33,28.88-4.39-.76-6.93,1.24-8.78,5.16s.55,7.6-.11,10.72c-.94,4.45,8.34,18.21-8.37,11.62-1.43-.57-2.66.35-2.88,1.94-1.69,12.15-12.88,17.63-18.83,26.8-3.87,6-9.82,8-16.79,7.3-3.06-4.38-1.19-8.3,1.15-12.18,11.48-4.93,19.07-13.7,24.61-24.62,2.51-5,3.37-9.93,3.7-15.56.81-13.87,2.81-25.8,18.65-33.85C1826.44,262.23,1836.92,258.44,1847,253.68Z"/><path class="cls-9" d="M1656,154.1l12.76,5,23.5,9.5c.5,8,9.92,12,9.09,20.58-18.12.6-36.41-.32-53.88,6.06-27.55,3-52.64,13.22-76.46,26.74-4.38,2.49-11,3.3-11.87,10.17-22.9,10.9-40,28.06-53.2,49.41a6.52,6.52,0,0,0-6.24,4.16c-19.48-9.12-40.75-14-59.5-24.82.18-4.26,3.76-6.22,6.07-9.06,3.57-4.41,9.29-7.13,10.55-13.36,10.21-4.44,16.59-13.72,25.28-20.15,19.5-14.44,40.56-25.81,62.71-35.38,26-10.23,52.83-17.57,80.24-23C1635.38,157.81,1646.23,158.73,1656,154.1Z"/><path class="cls-4" d="M1499.73,285.68a6.52,6.52,0,0,1,6.24-4.16c35-19,71.51-33.67,110.75-41.13,9.71-1.21,19.11-3.94,29-4.63,33.49-2.35,66.68-4.28,95.6,17.82,2,1.56,3-2.14,4.79-2.8,3.43,8.82,7.36,17.5,10.1,26.53A19.28,19.28,0,0,1,1754,294c-17.25-2.29-34-7-51.43-9.05-37.39-4.49-71.94,4.8-106.62,15.9-12.51,4-24,10.74-36.91,13.59-9.61-.4-16.73-6.8-24.59-11C1523,297.38,1510.06,294,1499.73,285.68Z"/><path class="cls-5" d="M1559.08,314.42c12.92-2.85,24.4-9.58,36.91-13.59,34.68-11.1,69.23-20.39,106.62-15.9C1720,287,1736.79,291.69,1754,294c8.08,17.2,5.81,35.23,4.31,53.21-4-1.64-1.63-8.51-7.85-8.93-6.58-.43-13.07-2.18-19.59-3.36a4.35,4.35,0,0,0-4.36-3c-30-5.67-60.23-9.26-90.69-5-14.59,2-29.62,1-43.78,6.08A84.53,84.53,0,0,1,1559.08,314.42Z"/><path class="cls-5" d="M1746.1,250.78c-1.8.66-2.75,4.36-4.79,2.8-28.92-22.1-62.11-20.17-95.6-17.82-9.88.69-19.28,3.42-29,4.63-3.81-4.51-9-4.15-14.15-4-14.65.44-29.19-.25-43.4-4.28.92-6.87,7.49-7.68,11.87-10.17,23.82-13.52,48.91-23.75,76.47-26.74,17.73,6.14,36.15,10.34,53,18.77,7.26,3.62,14.33,7.52,22.89,6C1731.1,230.15,1742.68,237.46,1746.1,250.78Z"/><path class="cls-4" d="M1730.9,334.9c6.53,1.18,13,2.93,19.6,3.36,6.22.42,3.81,7.29,7.85,8.93a94,94,0,0,1-3.92,41.12c-1.54,1-1.83,2.54-1.78,4.22l-2.3,4.15c-4.45,3.3-4,10.53-10.09,12.52-7.89,4.19-16.28,2.2-24.25,1.1a104.92,104.92,0,0,0-17.13-1.41c-14.08-5.75-24.55-16.25-35.06-26.68.12-3.31,1.6-4.81,4.81-6.61,15.83-8.86,32.26-16.88,46.24-28.74C1722.32,345.7,1723.81,336.54,1730.9,334.9Z"/><path class="cls-9" d="M1779.47,462.46c6.14-5.15,13.29-8.44,20.73-11.18l-.72,4.75c-4.23.64-3.56,4-4.12,6.93-3.3,17.43-1.53,35-2,52.53-.56,18.58,1.37,36.68,10.27,53.44,1.2,10.24,11.36,15.21,14.33,24.41-7,7.87-16.5,10.67-26.26,12.94-5.43.17-10.57-.21-12.61-6.55A420.44,420.44,0,0,1,1762.52,532c1-13.67-1.75-27.54,2.19-41,2.33-8.9,7.68-16.83,8.39-26.25C1775.28,464.12,1777.87,464.7,1779.47,462.46Z"/><path class="cls-5" d="M1692.29,168.56l-23.5-9.5c3.61-1.13,6.54-3,7.63-6.9a5,5,0,0,0,.09-2l.06.18c6.81-2.93,11.14-8.83,16.3-13.72,9.89-9.38,20.65-17.34,33.77-22.44,3.4,10.6,3.31,21.59,10,30.37,2.18,2.85,1.57,5.42-2.56,5.27C1717.05,149.25,1704.65,158.82,1692.29,168.56Z"/><path class="cls-7" d="M1818.36,329.14c-8.28,3.14-13.31,10.18-19.24,16.13A105.8,105.8,0,0,1,1781,359.83c-5-.56-11.34,1.66-12.66-6.28,7,.73,12.92-1.33,16.79-7.3,6-9.17,17.14-14.65,18.83-26.8.22-1.59,1.45-2.51,2.88-1.94,16.71,6.59,7.43-7.17,8.37-11.62.66-3.12-1.68-6.92.11-10.72s4.39-5.92,8.78-5.17c.8,8.26,1.65,16.49,12.36,17.92,0,2.69,0,5.38,0,8.07l-.15.34C1829.41,319.39,1825.7,326.8,1818.36,329.14Z"/><path class="cls-7" d="M1723.45,220c-8.56,1.54-15.63-2.36-22.89-6-16.9-8.43-35.32-12.63-53-18.77,17.46-6.38,35.75-5.46,53.87-6.06Z"/><path class="cls-10" d="M1744.08,476.52l4.11-2,2.37-1.9,4.08-1.94c6.55-.75,11.37-6.88,18.46-6-.71,9.42-6.06,17.35-8.39,26.25C1754.62,490.75,1751.52,480.53,1744.08,476.52Z"/><path class="cls-9" d="M1714.51,474.47c4,3.93,8.1.55,12.17.26s8-.94,11.59,1.45c-6.8,20.76-20.3,37.53-33.15,54.53-13.06,17.28-27.25,33.72-40.95,50.53-12.88,11.11-25.62,22.37-37.13,35-17.3-2.6-32.26-10.93-47.19-19.33-2.93-1.66-6.11-3.18-6.16-7.31,1-2.79,4.07-3.45,5.84-5.35,5.86-6.25,15.75-8.14,18.81-17.38,16.87-4.73,32.35-12,44.56-25,3.2-3.42,7.56-6.19,6.73-11.89,7.95-4.17,17.3-6.89,18.66-17.92,3.08-1.45,6.58-2.37,9.15-4.43,9-7.23,21.07-11.66,23.74-24.93C1708.19,484.12,1710.24,477.49,1714.51,474.47Z"/><path class="cls-11" d="M1420.3,416.34c14.76-18,33.37-31.61,51.55-45.72,2.45-1.9,5.32-3.18,5.37-6.84,21.12-2.45,39.69-13,59.82-18.65,11.27,2.33,18.57,11.35,27.52,17.29,15.83,10.52,30,23.55,44.94,35.43,1.69,1.34,3,2.61,3.27,4.81-5.14,5.87-12.14,3.54-18.46,4.21-1.14-6.83-5.92-8.83-11.88-8.15-6.87.78-14.63.7-16.67,9.88l-72.67,4.17c2.94-10.17,2.05-19.65-5.7-27.48-6.78-6.85-14.14-4.59-16.52,4.76s1.88,17.17,6.62,24.74c-2.73,3.42-7.09,2.94-10.38,2.94-12.83,0-24.77,5.63-37.57,5.3A12.79,12.79,0,0,0,1420.3,416.34Z"/><path class="cls-11" d="M1714.87,346.86c-14,11.86-30.41,19.88-46.24,28.74-3.21,1.8-4.69,3.3-4.81,6.61-7-.3-10.75-4.24-12.17-10.81,10.54-.9,14.53-5.6,13.56-15.68-.55-5.59-3.16-10.33-6.17-14.77-2.38-3.51-6-5.78-10.54-4.82-5.09,1.08-6.77,5.08-7.66,9.74-1.78,9.24,3.06,16.42,7.14,23.86a10.41,10.41,0,0,1-8.44-2.69c-13-12.46-29.24-20-44.54-29-2-1.14-2.62-3-2.92-5.1,14.16-5.06,29.19-4,43.78-6.08,30.46-4.29,60.67-.7,90.69,5C1721.54,336,1715.94,339.67,1714.87,346.86Z"/><path class="cls-11" d="M1656,445.78c2.25,0,4.54.18,6.07-2,5.85,6.94,14.58,11.22,18.47,20-1.44,4.15-2.49,8.48-4.38,12.4-6.12,12.64-11,26.49-26.45,31.22-6.79.14-13.65-.33-20.34.53-23.1,3-45.75,0-68.36-4.22,9.36-3.44,19.5-4.13,28.56-8.76a78.09,78.09,0,0,1,39.3-8.44,23.11,23.11,0,0,0,19.61-8.79c9.22-6.49,12.19-19.21,7.43-31.77Z"/><path class="cls-9" d="M1397.07,355.5c1.35-18.56,9-35.22,15.85-52.1,2.4-5.9,6.93-11,6.91-17.82,15.11,5.95,32.17,7.15,45.06,18.49-5.19,6.81-13.07,10.12-19.91,14.6C1428,329.75,1414.49,345.14,1397.07,355.5Z"/><path class="cls-10" d="M1649.68,507.38c15.5-4.73,20.33-18.58,26.45-31.22,1.89-3.92,2.94-8.25,4.38-12.4,8.62,4.41,14,12.37,20.66,18.91-2.66,13.27-14.73,17.7-23.73,24.93-2.57,2.06-6.07,3-9.15,4.42-7.7.78-14.86,4.89-22.87,3.79C1646.61,512.88,1649.86,511,1649.68,507.38Z"/><path class="cls-9" d="M1740.26,409.2c-1.74,7.46-3.31,15-5.31,22.34-.83,3.07-1.08,6.83-5,8.17-11.13-9.5-24.23-17-31.09-30.82A104.92,104.92,0,0,1,1716,410.3C1724,411.4,1732.37,413.39,1740.26,409.2Z"/><path class="cls-4" d="M1397.14,248.61c.23-2.09.83-4.76,2.83-5,14.79-1.34,29.51-6.5,44.46-1.12-3.39,6.81-13.38,7.79-14.59,16.52C1419.1,255.09,1407.33,254.31,1397.14,248.61Z"/><path class="cls-5" d="M1537,345.13c-20.13,5.6-38.7,16.2-59.82,18.65,15.64-8.7,30.94-17.95,45.16-28.87C1529.07,335.72,1534.53,338.31,1537,345.13Z"/><path class="cls-7" d="M1429.84,259.06c1.21-8.73,11.2-9.71,14.59-16.52,4-1.86,7.63-4.69,12.42-4.1-1.26,6.23-7,8.95-10.55,13.36-2.31,2.84-5.89,4.8-6.07,9.06C1436.68,260.75,1432.88,262.11,1429.84,259.06Z"/><path class="cls-6" d="M1573.69,589.55c0,4.13,3.23,5.65,6.16,7.31,14.93,8.4,29.89,16.73,47.2,19.33a33,33,0,0,0,10.09,4.52c19.89,4.77,40.1,6.53,60.43,7.84,19.2,1.23,37.83-4,56.87-4.16q-1.18,11.25-2.35,22.5c-35.83,12.75-72.74,12.83-109.76,8.32-43-5.25-81.09-23.29-116.65-47.48-11.52-7.83-20.8-18.61-33.54-24.69a65.54,65.54,0,0,0-22.63-22.54c-.52-4.48-4.81-6.42-6.74-10,9.84-7.38,20.5-12.92,32.84-14.69,9.65,6.27,18.41,14.12,30.12,16.68,1.83,5.12,5.88,7.42,10.86,8.54C1545.79,574.68,1556.65,586.14,1573.69,589.55Z"/><path class="cls-7" d="M1649.68,507.38c.18,3.62-3.07,5.5-4.26,8.42-3.75,1.6-7.36,3.25-11.52,4-45.67,8.52-91.81,11.41-138.15,12.13-17.74-5.55-33.29-15.52-49.3-24.55,0-.75,0-1.51,0-2.26l8.06-.85c15.59-1.57,29.67-9.2,45.14-11.23,18.82,6,38,9.87,57.84,10.25l3.54.37c22.61,4.2,45.26,7.18,68.36,4.22C1636,507.05,1642.89,507.52,1649.68,507.38Z"/><path class="cls-6" d="M1508.07,686c-12,.06-24.52,2.09-33.81-8.57,1.61-8,1.41-16.09.61-24.17-4.43-17.69-12.79-33.14-26.21-45.68-10.39-16.2-24.91-28.44-39.3-40.79,6.06-7.54,14.83-5.25,22.69-6.28,11.21,2.78,18.93,11.43,28.52,16.95L1487.41,610,1500,636.35c-1.36,14,3.25,26.82,8.19,39.55C1508.11,679.25,1508.09,682.61,1508.07,686Z"/><path class="cls-4" d="M1495.75,532c46.34-.72,92.48-3.61,138.15-12.13,4.16-.78,7.77-2.43,11.52-4,8,1.11,15.17-3,22.87-3.78-1.36,11-10.71,13.76-18.66,17.93a93.35,93.35,0,0,1-26,14.93c-17.31,6.78-35.64,9-54.13,9.92l-43.78-2.27c-11.7-2.56-20.46-10.41-30.11-16.68C1495.66,534.55,1495.71,533.25,1495.75,532Z"/><path class="cls-4" d="M1269.86,591.54c-1-18.22-8.27-35.65-6.35-54.36,1-9.39-.17-19,2.5-28.3,12.47,1.18,19.3,10.32,26.55,18.86.13,13.06,5.73,24.92,8.25,37.45C1293.31,577.27,1283.74,586.93,1269.86,591.54Z"/><path class="cls-5" d="M1446.4,505.15c0,.75,0,1.51,0,2.26-12.37,7.78-22.83,17.19-27.34,31.76-1.26,4.07-3.52,5.22-7.69,3a34.1,34.1,0,0,0-16.76-3.79c-8.73.23-8.79-4.42-6.64-10.52,5.92-16.83,18.77-27,33.93-34.88l14.2,2.08C1437.23,500.81,1443.46,501.31,1446.4,505.15Z"/><path class="cls-4" d="M1409.36,566.75c14.39,12.35,28.91,24.59,39.3,40.8-4.75,4.91-7.16,11.27-10.66,17-4.86,7.88-8.55,16.69-16.33,22.47-4.07-8.68-.36-18.42-3.7-27.19,3.14-5.09,1.41-10.36.78-15.67-1.6-13.45-10.27-24.16-13.94-36.79Z"/><path class="cls-10" d="M1460.57,577.42c-9.59-5.52-17.31-14.17-28.52-16.95,8.21-9.6,19.57-9.45,30.72-9.93,1.93,3.54,6.22,5.48,6.73,10C1463.42,564.51,1464.6,572.34,1460.57,577.42Z"/><path class="cls-7" d="M1300.81,565.19c-2.52-12.53-8.12-24.39-8.25-37.45,7.94,2.07,13.86,7.46,20.16,12.24C1309.79,548.87,1310.28,559.38,1300.81,565.19Z"/><path class="cls-4" d="M1335.8,563.12c.64-2.24,1.29-4.48,1.93-6.72l16.26,6.35c4.34,7,5.08,13.2-2.89,18.48-2.83,1.87-4.85,1.28-7.26,0Z"/><path class="cls-10" d="M1404.81,567.32c3.67,12.63,12.34,23.34,13.94,36.79.63,5.31,2.36,10.58-.78,15.67-3.41-19.46-10.1-37.48-23-52.81Z"/><path class="cls-8" d="M1837,322.41a4.33,4.33,0,0,1-.65-1.73c-.05-1.45-.09-2.9-.14-4.35l.15-.33c3.14.14,4.24-1.73,4.08-4.47-.52-9,5.91-13.63,12.11-17.29,11.39-6.73,23.62-11.77,37.4-10.69a1.76,1.76,0,0,1,.32,1.42c.47.91,1,1.81,1.42,2.71l.15.2c0,5.1.4,10.23,0,15.3-.32,4.53-1.23,9.24-7.89,7.05-.87-5.33-1.54-10.7-2.67-16a4.86,4.86,0,0,0-5.39-3.72c-3.44.5-2.62,3.73-1.88,5.71,2.74,7.4,1.13,14-3,20.27-5.37-.17-10.21-.58-12.93,6.25-1.79,4.52-6.91,4.47-11.29,2.09Z"/><path class="cls-6" d="M1836.41,307.92c-10.71-1.43-11.56-9.66-12.36-17.92,6-9.91,9-21.7,19.33-28.87,3.62-2.51,6.73-5.58,11.3-6.22,9.85-1.71,16.64,3.65,23,10-1.45,3.19-4.13,3.88-7.39,4.36C1852.38,271.87,1837,289.54,1836.41,307.92Z"/><path class="cls-5" d="M1836.41,307.92c.61-18.38,16-36.05,33.9-38.69,3.26-.48,5.94-1.17,7.39-4.36,7.48,4,13.3,9.09,12.28,18.68-13.78-1.08-26,4-37.4,10.69-6.2,3.66-12.63,8.33-12.11,17.29.16,2.74-.94,4.61-4.08,4.47C1836.4,313.3,1836.4,310.61,1836.41,307.92Z"/><path class="cls-5" d="M1884,310.23c6.66,2.19,7.57-2.52,7.89-7.05.36-5.07,0-10.2,0-15.3,7.08,1.77,11.56,5.66,11.08,13.59a60.49,60.49,0,0,0-5,16.74c-7,4.87-13.79-.87-20.69-.32C1878.59,314.52,1879.33,310.64,1884,310.23Z"/><path class="cls-4" d="M1898,318.21a60.49,60.49,0,0,1,5-16.74c5.74,2.32,5.73,7.88,6.56,12.6.64,3.6.93,7.21,2.61,10.52C1905.85,325.92,1902.8,320.09,1898,318.21Z"/><path class="cls-5" d="M1891.72,287.68c-.47-.9-1-1.8-1.42-2.71C1890.77,285.88,1891.25,286.78,1891.72,287.68Z"/><path class="cls-12" d="M1547,479.62c9.21-7.06,21-6.61,31.32-10.82,21.92-9,45.38-13.71,67.24-23,3.49.29,7-4.23,10.46,0l-.09.15c-3.13-.47-5.44.65-6.37,3.74-1.55,5.16-5.58,8.48-8.81,12.4-4.82,2.42-9.75,4.45-15.31,4.1-18.4-1.16-35.58,3.39-52,11.29C1564.83,481.57,1556.08,482.8,1547,479.62Z"/><path class="cls-7" d="M1565.76,408.6c2-9.18,9.8-9.1,16.67-9.88,6-.68,10.74,1.32,11.88,8.15C1585,410.59,1575.26,407.83,1565.76,408.6Z"/><path class="cls-13" d="M1420.3,416.34a12.79,12.79,0,0,1,9.24,6.69c-4.47,2.88-9,4.08-13.55.21C1416.38,420.29,1416,416.87,1420.3,416.34Z"/><path class="cls-5" d="M1664.1,961.63c2.28-8.64-3.87-16.48-2.37-25l8.26-.15a105.76,105.76,0,0,0,35.64-7.79c12.81-5.3,26.93-8.21,36.21-20.77,3.08-4.17,11.46-4.34,10.49-12.53,4.73-1.19,9.82,3.95,13.69.85,9-7.24,19.56-12.58,27.35-21.38,5.43-2.51,7-10.48,14.36-10.23l2.81,2.65c.17-.28.55-.62.49-.84-.44-1.7-1.93-1.66-3.26-1.85V850.08l8,18.41c.87,3.86-7.07,6-2,10.7-5.77,7.52-12.54,14.46-14.19,24.38-6.39,3.76-11.81,8.26-12.32,16.43a16.26,16.26,0,0,0-3.88,1c-12.27,6.73-20.49,19.37-34.45,23.75-.6.19-.54,2.49-.79,3.81-17.48,4.43-31.4,16.39-51.08,22.1,18.14,9.46,35.18,12.55,51.83,16.06,23.79,5,47.8,5.74,71.18-3.11,4.84-1,7.66,3.65,12,4.2q1.74,6,3.49,11.9l-.63,6.34c-7.1,7.84-14,15.88-22.48,22.33-47.51,8.93-88.42-8.65-127.93-31.85-5.3-1.87-7-7-10-11C1675.23,975.75,1671.59,967.86,1664.1,961.63Z"/><path class="cls-10" d="M1684.43,996.54c39.51,23.2,80.42,40.78,127.92,31.85-10.28,14-25,22.51-39.42,31.31-14,.61-25.06-7.54-36.85-13.17-11.58-5.53-22.74-12-34-18.1a16.38,16.38,0,0,0-9.88-1.56c-8.24-7.36-3-18.49-7.57-26.9C1684.54,998.83,1684.48,997.68,1684.43,996.54Z"/><path class="cls-9" d="M1637.13,963.21c2.13,4.71,5.2,9.44-.23,14l-3,.75-15,3.63-2.06-.43c-7.4-.89-14.33-3-20.42-7.51L1584,938.55l18.61,6.37c3.42,2.23,6.56,5.5,10.3,6.48C1621.83,953.75,1626.78,964,1637.13,963.21Z"/><path class="cls-10" d="M1557.09,1035c-7.59,3.36-15.18-.94-22.77,0,.56-4.49,5.18-6.36,6.62-10.27a44.52,44.52,0,0,1,22.86-4C1564.05,1026.7,1561.27,1031.17,1557.09,1035Z"/><path class="cls-10" d="M1537,1059.81l20.24-.22a13.74,13.74,0,0,1-2,10.29c-6.93-.94-14.32,2.28-20.84-2.34C1535.27,1065,1536.14,1062.38,1537,1059.81Z"/><path class="cls-10" d="M1567.89,1014.94c.9-8.48-2.56-11.51-10.76-8.63-.33-5.9,3.78-9.89,6.25-14.58l10.78-5.33c.49,1.24,1,2.47,1.45,3.71-6.82-1.67-5.73,3.59-6.2,7.25C1568.66,1003.19,1571.5,1009.34,1567.89,1014.94Z"/><path class="cls-10" d="M1616.85,981.18c-3.75.63-7.87-.48-11.17,2.32l-7.19.43q-1-5.13-2.06-10.26C1602.52,978.13,1609.45,980.29,1616.85,981.18Z"/><path class="cls-7" d="M1803.62,568.93c-8.9-16.76-10.83-34.86-10.27-53.44,9.08,4.57,17.14,11.07,26.86,14.45,11.1,6,22.26,12,33.26,18.21,2.85,1.6,4.89,2.82,5.55-1.71l6.58,4.33c-6,12.44-16.48,19.56-28.89,24.4l-2.2,1.29a2.77,2.77,0,0,1-1.35,1C1822.63,577,1813.07,573.15,1803.62,568.93Z"/><path class="cls-7" d="M1779.08,599.73c2,6.34,7.18,6.72,12.61,6.55-11.93,1.47-18.86,11.8-29.06,16.35l-6.3-.08c.21-18.22-3.16-35.58-12.34-51.54q.18-9.3.35-18.58c5.63,1.1,9,5.13,10.64,10,3.22,9.42,9.2,17.32,13.55,26.11C1770.76,593,1772.37,599,1779.08,599.73Z"/><path class="cls-10" d="M1803.62,568.93c9.45,4.22,19,8.06,29.54,8.56-1.23,9-9,11.68-15.21,15.86C1815,584.14,1804.82,579.17,1803.62,568.93Z"/><path class="cls-4" d="M1865.6,550.77l-6.58-4.33c-3.64-4.64-8.06-8.73-10.14-14.47,6.93-.31,12.16,4.46,18.42,6.16l4.1,4.14q-.95,2.29-1.87,4.58Z"/><path class="cls-10" d="M1834.51,576.46l2.2-1.29Z"/><path class="cls-7" d="M1815.52,820.23c-.19,1.2-.37,2.4-.57,3.6q-1,4.13-2.08,8.25c-18.24,3.21-35.94,10.2-55,7.9-3.29-.4-6.87.84-9.74-1.8-.56-6.16,3.53-10.32,6.46-15,9-.43,18-.54,26.53-3.75,7.38-.11,14.68-.49,20.38-6.17,3.42,3.43,4.64.2,6.18-2l.08-.06h1l1,.05q2,3.06,4,6.12Z"/><path class="cls-4" d="M1787.22,920c.51-8.17,5.93-12.67,12.32-16.43,7.16,0,13.31,4.95,20.62,4.19,4.64,9.16,9.89,18.08,10.73,28.65l-2.4,8.31h-.23C1816.54,933.23,1802.59,925.44,1787.22,920Z"/><path class="cls-7" d="M1820.16,907.76c-7.31.76-13.46-4.2-20.62-4.19,1.65-9.92,8.42-16.86,14.19-24.38C1819.22,888,1824.28,896.83,1820.16,907.76Z"/><path class="cls-9" d="M1772.93,1059.7c14.44-8.8,29.14-17.26,39.42-31.31,8.49-6.45,15.39-14.49,22.49-22.33,3.65,8.62,6,17.41,3.72,26.85-1.81,1.06-2.31,2.39-.84,4.11q-.36,3-.71,5.91c-8.25,8.49-17.1,16.46-23.35,26.7C1801.25,1073.53,1780.23,1068.4,1772.93,1059.7Z"/><path class="cls-7" d="M1813.66,1069.63c6.25-10.24,15.1-18.21,23.35-26.7,4.35,10.25,5.42,20.6.86,31.1-5.44,0-10.87,0-16.31,0C1818.11,1074,1814.52,1074.28,1813.66,1069.63Z"/><path class="cls-7" d="M1837.72,1037c-1.47-1.72-1-3,.84-4.11Z"/><path class="cls-6" d="M1752.3,663.4q3.36,11.91,6.71,23.82c-1.3,3.22-6.74,2.45-6.7,7h0c-10.86,8.09-21.33,16.77-32.65,24.14a222,222,0,0,1-75.4,31.15c-2.58.54-4.57,1.26-4.92,4.17-32.61,1.18-63.71-6.37-94.4-16.33,0-3.32-.27-6.49,3.17-8.89,8.59-6,15.49-14.4,25.81-17.92,44.55-2.51,86.23-16.17,127.18-32.68C1717.73,671.41,1735,667.32,1752.3,663.4Z"/><path class="cls-4" d="M1752.3,663.4c-17.31,3.92-34.57,8-51.19,14.41a5.29,5.29,0,0,0-5.46-2c-21.9,5.07-44.51,2.26-66.52,6-.43-2.85-2.2-4.26-5-4-14,1.26-27.76-3.5-41.79-2-9-5.46-18.83-8-29.27-8.5-.64-1.08-1.07-2.84-2-3.12-19.38-6.14-36.71-15.07-47.15-33.69q-5.23-16.39-10.46-32.8L1492.14,583c12.74,6.08,22,16.86,33.54,24.69,35.56,24.19,73.6,42.23,116.65,47.48,37,4.51,73.93,4.43,109.76-8.32Z"/><path class="cls-4" d="M1744,571c9.18,16,12.55,33.32,12.34,51.54l-1.89,1.84c-19,.18-37.67,5.39-56.87,4.16-20.33-1.31-40.54-3.07-60.43-7.84a33,33,0,0,1-10.09-4.52c11.5-12.58,24.24-23.84,37.12-35,6.09.22,12.13.6,18.24,1.35,10.95,1.34,22.36,2.79,32.71-3.43,6.62.94,12.54-1.14,17.79-4.84C1736.36,571.89,1739.83,570.57,1744,571Z"/><path class="cls-9" d="M1639.35,753.63c.35-2.91,2.34-3.63,4.92-4.17a222,222,0,0,0,75.4-31.15c11.32-7.37,21.79-16,32.65-24.14l.76.43-.77-.42c0-4.51,5.4-3.74,6.7-7,7.28,6.23,9.67,14.94,12,23.69,0,3.74-.39,7.52,0,11.22.7,6.94-.69,9.28-9,9.39-24.3.34-47.47,6.66-69.09,18.07a101,101,0,0,0-13.94,1.36C1665.84,753.1,1652.71,755.55,1639.35,753.63Z"/><path class="cls-7" d="M1692.83,749.59c21.62-11.41,44.79-17.73,69.09-18.07,8.33-.11,9.72-2.45,9-9.39-.37-3.7,0-7.48,0-11.22,2.08,1.42,1.39,3.82,2,5.75-1.53,11.23.89,20.83,8.34,30.1,7.13,8.86,13,19.13,12.48,31.48-2.38,0-4.74.15-6.83-1.47C1759.2,755.22,1727.18,748.36,1692.83,749.59Z"/><path class="cls-4" d="M1656,154.1c-9.8,4.63-20.65,3.71-31,5.76-27.41,5.48-54.22,12.82-80.24,23-12.34.09-24.67-.29-37,1.05s-24.21,5.48-36.74,3.15a359.09,359.09,0,0,1,89.29-35.46c17.45-4.27,35.42-5,52.67-9.88C1627.75,144.58,1643.75,142.85,1656,154.1Z"/><path class="cls-10" d="M1848.88,532c2.08,5.74,6.5,9.83,10.14,14.47-.66,4.53-2.7,3.31-5.55,1.71-11-6.21-22.16-12.16-33.26-18.21.1-3.2-1.6-5.64-3-8.36-10.86-20.48-18.07-42-17.69-65.55l.72-4.75,0,0,24.26,27.38C1829.41,497.9,1837.19,515.84,1848.88,532Z"/><path class="cls-9" d="M1848.88,532c-11.69-16.13-19.47-34.07-24.47-53.27,11,8.74,24.14,14.82,32.62,26.62,1.08,6,4.63,11.46,4.3,17.83-.68,6.06,7.48,8.59,6,15C1861,536.43,1855.81,531.66,1848.88,532Z"/><path class="cls-9" d="M1825.86,428.5l6.38-5.74c.14,1.3-.21,3.09.5,3.78,2.16,2.08,2.28-1,3.16-1.75a6.66,6.66,0,0,0,2.36-6.13l-.11-.13c9.34,1.83,8.36,11.4,12.71,17L1850.8,454c-9.93-2.55-16.67-10.67-25.73-14.93C1821.72,437.45,1828.23,432.37,1825.86,428.5Z"/><path class="cls-6" d="M1867.3,538.13c1.51-6.39-6.65-8.92-6-15a44.33,44.33,0,0,0,22.12-3.63c4.2.16,8.24-.34,10.37-4.57,2-3.94,4.59-.87,6.92-.94-.84,5.69-5,9.51-8,14-4.56,8.61-12.67,11.9-21.38,14.28Z"/><path class="cls-7" d="M1850.8,454l.06-18.46c9.2,9.32,15.53,21.33,26.86,28.65-3.69,4.2-6.93.65-10-.87C1862,460.42,1856.43,457.09,1850.8,454Z"/><path class="cls-10" d="M1883.45,519.53a44.33,44.33,0,0,1-22.12,3.63c.33-6.38-3.22-11.81-4.3-17.84C1867.53,506.9,1874.66,514.77,1883.45,519.53Z"/><path class="cls-6" d="M1903,510.29c-.46,1.47-.67,3.11-2.56,3.54C1900.23,509.3,1900.23,509.3,1903,510.29Z"/><path class="cls-5" d="M1837,322.41l9.85,2.44c4.56,7.78,14.38,6.82,20.35,12.26-1.73,3.55-4.8,5.61-8.27,7.06-4.34,1.82-1.1,3.27.1,4.86-5.41.86-13.5-2.37-12.54,8.21C1841.59,346.11,1835.93,335.18,1837,322.41Z"/><path class="cls-7" d="M1887.82,367.75q.15,11.38.32,22.76c-6.9.61-12.12-3.71-18.05-6-7.49-2.92-7-6.57-.86-9.85C1875,371.54,1880.26,366.31,1887.82,367.75Z"/><path class="cls-7" d="M1850.54,393.67l2.82-3.61c10.56,4.64,17.15,14.34,26.37,20.7-.62,3.64,1,7.79-2.37,10.82C1865,415.54,1859,403.43,1850.54,393.67Z"/><path class="cls-10" d="M1884,310.23c-4.69.41-5.43,4.29-6.74,7.66-2.25.39-4.39.31-6.18-1.38,4.11-6.29,5.72-12.87,3-20.27-.74-2-1.56-5.21,1.88-5.71a4.86,4.86,0,0,1,5.39,3.72C1882.48,299.53,1883.15,304.9,1884,310.23Z"/><path class="cls-7" d="M1859.06,349c-1.2-1.59-4.44-3-.1-4.86,3.47-1.45,6.54-3.51,8.27-7.06,3.35.13,7.35-.24,7.87,4.27.55,4.74-3.59,6.16-7.07,7.1C1865.2,349.25,1862.06,348.89,1859.06,349Z"/><path class="cls-14" d="M1676.51,150.19a5,5,0,0,1-.09,2C1675.05,151.44,1675,150.78,1676.51,150.19Z"/><path class="cls-10" d="M1491.39,1059.49l14.6-6c7.84-3.19,14.47-.36,20.76,4.18q-3.55,3.93-7.1,7.88C1509.69,1066,1499.77,1066.34,1491.39,1059.49Z"/><path class="cls-6" d="M1519.65,1065.58q3.54-3.94,7.1-7.88c3.54.11,7.41-1.36,10.27,2.11-.88,2.57-1.75,5.15-2.63,7.73C1529.38,1067.59,1524.16,1069.27,1519.65,1065.58Z"/><path class="cls-5" d="M1230.92,527.84l-.12-28.58A71.58,71.58,0,0,1,1251,493c-1,12-4.42,23.45-7.9,34.89Z"/><path class="cls-15" d="M1231.14,478.09c1.08-1.38,2.55-1.52,4.14-1.31A3.79,3.79,0,0,1,1231.14,478.09Z"/><path class="cls-4" d="M1692.83,749.59c34.35-1.23,66.37,5.63,94.14,27.18,2.09,1.62,4.45,1.49,6.83,1.47a45.83,45.83,0,0,0,8.12,11.21c5.94,5.92,10.24,12.72,7.85,21.77l-1-.05h-1c-.73-2.27.92-7.27-2.48-6.33-10.3,2.86-16-6-24.25-8-5.06-.31-8.91-4.84-14.27-4.08a46.45,46.45,0,0,0-26.69-6l-4-.23c-13.78-6.51-29-2.56-43.19-5.89-30.38-1.14-60.43,2.7-90.54,5.72-3.55-7.62-10.81-3.37-16.14-4.53-20.73-4.53-39.65-12.92-57.57-24-.64-2.79-1.29-5.59-1.93-8.38,5.52-4.89,8.63-13.42,18.25-12.17,30.69,10,61.79,17.51,94.4,16.33,13.36,1.92,26.49-.53,39.54-2.68A101,101,0,0,1,1692.83,749.59Z"/><path class="cls-7" d="M1553.11,667.37c10.44.5,20.28,3,29.27,8.5C1571.1,686.6,1560,697.5,1548.51,708c-9.57,8.79-14.55,21.21-24.26,29.83-8.44-7.47-10.42-18-11.89-28.14-1.16-8-2.8-15.85-4.29-23.76,0-3.35,0-6.71.07-10.06C1524.43,679.93,1539,675,1553.11,667.37Z"/><path class="cls-7" d="M1421.67,647c7.78-5.78,11.47-14.59,16.33-22.47,3.5-5.68,5.91-12,10.66-17,13.42,12.53,21.78,28,26.21,45.67l-20.34,20.57c-10.93.54-21.76,3-32.78,1.73Q1421.71,661.24,1421.67,647Z"/><path class="cls-9" d="M1524.25,737.86c9.71-8.62,14.69-21,24.26-29.83,11.47-10.53,22.59-21.43,33.87-32.16,14-1.53,27.77,3.23,41.79,2,2.76-.25,4.53,1.16,5,4-19,8.47-38.28,16.25-55.2,28.64-10.32,3.52-17.22,11.93-25.81,17.92-3.44,2.4-3.14,5.57-3.17,8.89-9.62-1.25-12.73,7.28-18.25,12.17C1524.13,746,1524.52,741.84,1524.25,737.86Z"/><path class="cls-9" d="M1528.63,757.85c17.92,11,36.84,19.43,57.57,24,5.33,1.16,12.59-3.09,16.14,4.53-13.18.08-25.79,4.86-39.1,4.37-14.27-.52-28.57-.24-42.85-.31C1519.59,778.65,1519.35,767,1528.63,757.85Z"/><path class="cls-10" d="M1454.53,673.79l20.34-20.57c.8,8.08,1,16.15-.61,24.17C1467.5,677.19,1460.1,680.52,1454.53,673.79Z"/><path class="cls-10" d="M1647.18,914.16c-9.27-9.34-19.43-17.84-26.8-28.92,18.9-2.56,33.68-13.55,48.68-24,1-.71.82-3.13,1.19-4.76,15.63,2.5,29.58,10.12,44.55,14.62,1.91.57,2.51,2.12,2.91,3.82a113.75,113.75,0,0,1-20.66,18.47C1681.41,902.68,1665.18,910.54,1647.18,914.16Z"/><path class="cls-9" d="M1697.05,893.4a113.75,113.75,0,0,0,20.66-18.47l40.83,6.16c-.06,5.63-5.68,8.84-6.21,14.26,1,8.19-7.41,8.36-10.49,12.53-9.28,12.56-23.4,15.47-36.21,20.77a105.76,105.76,0,0,1-35.64,7.79c1.87-6.89,7.36-11.2,11.44-16.56C1687.65,911.72,1697.48,905.52,1697.05,893.4Z"/><path class="cls-10" d="M1692.88,780.62c14.21,3.33,29.41-.62,43.19,5.89-11.25,8.17-23.19,15.58-33.42,24.88-4.55,4.13-13,4-14,12l-43-8.27c-.13-4.25,3.17-5.83,6.15-7.24,12.45-5.93,22.41-16,35.32-21.1C1690.26,785.58,1692.5,784.13,1692.88,780.62Z"/><path class="cls-7" d="M1670.25,856.49c-.37,1.63-.18,4-1.19,4.76-15,10.44-29.78,21.43-48.68,24-11.77-7-22.2-15.74-32.52-24.63,3.28-.81,6.73-1.22,9.81-2.5,10.39-4.32,23-3,31.51-12.06C1643.1,848.63,1657.26,850.28,1670.25,856.49Z"/><path class="cls-10" d="M1740.1,786.74a46.45,46.45,0,0,1,26.69,6q-6.09,15.22-12.17,30.45c-2.93,4.66-7,8.82-6.46,15-13.49,1-26-3.69-38.87-6.61-.89-6.63,4.93-9.12,8.14-13.24C1725.4,808.1,1737,800.46,1740.1,786.74Z"/><path class="cls-10" d="M1629.18,846.05c-8.54,9.1-21.12,7.74-31.51,12.06-3.08,1.28-6.53,1.69-9.81,2.5-12.08-6.07-23.91-12.56-34.81-20.63,7-4.06,14.75-2.22,22-1.83C1593.29,839.12,1611.56,840.56,1629.18,846.05Z"/><path class="cls-7" d="M1740.1,786.74c-3.11,13.72-14.7,21.36-22.67,31.59-3.21,4.12-9,6.61-8.14,13.24-6.65-3.28-15.13-1.94-20.62-8.15,1-8,9.43-7.9,14-12,10.23-9.3,22.17-16.71,33.42-24.88Z"/><path class="cls-7" d="M1752.33,895.35c.53-5.42,6.15-8.63,6.21-14.26,11.91-.43,23.16-4.54,34.83-6.27-7.79,8.8-18.32,14.14-27.35,21.38C1762.15,899.3,1757.06,894.16,1752.33,895.35Z"/><path class="cls-7" d="M1386.7,618.21l-3.91,4q-3.09-9.18-6.19-18.35c.18-3-.69-6.31,2.35-8.53C1385.4,601.64,1386.16,609.89,1386.7,618.21Z"/><path class="cls-7" d="M1697.05,893.4c.43,12.12-9.4,18.32-15.62,26.48-4.08,5.36-9.57,9.67-11.44,16.56l-8.26.15c-5.94-6.77-10.09-14.71-14.55-22.44C1665.18,910.54,1681.41,902.68,1697.05,893.4Z"/><path class="cls-10" d="M1602.56,944.92,1584,938.55c-8.33-1.37-12.61-8.52-18.72-13.06-4.55-3.37-9.31-6.47-14-9.69l-2.43-5.88c10.65.36,20.25,4.78,30.05,8.2,6,2.09,11.6,5.32,17.38,8C1596.89,932.91,1603.07,937.79,1602.56,944.92Z"/><path class="cls-4" d="M1574.16,986.4l-10.77,5.34c1.67-7.24-3.06-13.11-4.49-19.68-.51-2.31-2.19,1.2-3.6,1.32.69-4.12-2.12-6.83-3.87-10-2.2-4-7.15-6.55-6.6-12.06.82-1.85,2.42-2.4,4.26-2.56C1563.08,957.53,1570.79,970.52,1574.16,986.4Z"/><path class="cls-4" d="M1602.56,944.92c.51-7.13-5.67-12-6.3-18.76,16.23,9.47,32.39,19,40.87,37.05-10.35.83-15.3-9.46-24.27-11.81C1609.12,950.42,1606,947.15,1602.56,944.92Z"/><path class="cls-4" d="M1528.46,1008.18c-8.55.37-16.6-2.21-24.75-4.17-3.81-14.63-8.21-28.91-22.24-37.48.11-5.31-4.21-5.82-7.73-7.77-8.12-4.52-17.88-1.69-25.84-6.37a8.3,8.3,0,0,1,4.31-5.82c12-5.06,24.49-6.56,37.35-6,3.89,7.87,12.94,10,18.2,16.37.59,1.56.85,3.38,1.82,4.64,8,10.37,14.38,21.38,15.48,34.9.23,2.78.54,6.25,3.59,8.13Z"/><path class="cls-10" d="M1528.65,1004.6c-3.05-1.88-3.36-5.35-3.59-8.13-1.1-13.52-7.45-24.53-15.48-34.9-1-1.26-1.23-3.08-1.82-4.64,9.26-4.42,20.11-2,29.29-6.79l7.78,1.13c-.55,5.52,4.4,8,6.6,12.07,1.75,3.21,4.56,5.92,3.87,10A117.53,117.53,0,0,1,1528.65,1004.6Z"/><path class="cls-5" d="M1537.05,950.14c-9.18,4.79-20,2.37-29.29,6.79-5.26-6.36-14.31-8.5-18.2-16.37,13.83-1.78,27,2.64,40.44,4.42C1533.05,945.38,1536,946.71,1537.05,950.14Z"/><path class="cls-5" d="M1442.64,958.27c2.24-1.53,1.82-5.44,5.26-5.88,8,4.68,17.72,1.85,25.84,6.37,3.52,2,7.84,2.46,7.73,7.78-7.11,5.64-18.4,6.24-21,17.37-8.68-4.95-14.9-12.77-22.35-19.16.4-1.4.8-2.8,1.21-4.21Z"/><path class="cls-4" d="M1376.6,603.86q3.09,9.18,6.19,18.35c-6.17,10.1-9.76,22.7-24.1,24.9q-.35-10.26-.72-20.5C1360.58,616.08,1366.73,608.45,1376.6,603.86Z"/><path class="cls-7" d="M1335.8,563.12l8,18.08a9.86,9.86,0,0,1-3.81,8.86c-8.53,6.75-16.4,14.53-27.18,17.87C1322.85,594.19,1331.9,580,1335.8,563.12Z"/><path class="cls-4" d="M1230.92,527.84l12.22,0a67.55,67.55,0,0,1-4.11,20.6l-12.35-.2C1229.83,541.81,1227.35,534.2,1230.92,527.84Z"/><path class="cls-10" d="M1460.5,983.91c2.57-11.13,13.86-11.73,21-17.37,14,8.56,18.43,22.84,22.24,37.47C1487.57,1001,1474.09,992.36,1460.5,983.91Z"/><path class="cls-9" d="M1528.65,1004.6a117.53,117.53,0,0,0,26.65-31.22c1.41-.12,3.09-3.63,3.6-1.32,1.43,6.57,6.16,12.44,4.49,19.68-2.48,4.68-6.59,8.67-6.26,14.57-9.39,3.14-19.08,1.73-28.67,1.87C1528.52,1007,1528.59,1005.79,1528.65,1004.6Z"/><path class="cls-9" d="M1540.94,1024.74c-1.44,3.91-6.06,5.78-6.62,10.27-10.07-2.5-20.83-1.66-30.46-6.27,1.83-6.41,7.15-3.69,11.05-3.93C1523.57,1024.27,1532.26,1026.43,1540.94,1024.74Z"/><path class="cls-4" d="M1440,1006.87l-1.92-2.59Z"/><path class="cls-7" d="M1559.17,232.11c14.21,4,28.75,4.72,43.4,4.28,5.11-.15,10.34-.51,14.15,4-39.24,7.46-75.78,22.17-110.75,41.13C1519.18,260.17,1536.27,243,1559.17,232.11Z"/><path class="cls-16" d="M1714.87,346.86c1.07-7.19,6.67-10.86,11.68-15a4.37,4.37,0,0,1,4.36,3C1723.81,336.54,1722.32,345.7,1714.87,346.86Z"/><path class="cls-4" d="M1836.24,316.33c0,1.45.09,2.9.14,4.35-8.28,8.11-8.86,18-5.72,28.23a68.82,68.82,0,0,0,7.38,16.76c5,7.78-1.27,13.2-4,18.47-2.62,5.08-9.11,2.42-14,1-3.21-.95-4.6-2.66-2.28-5.95,4.34-6.19,3.36-13.2,1.94-19.81-2.15-10.06-4.11-20-1.38-30.21C1825.7,326.8,1829.41,319.39,1836.24,316.33Z"/><path class="cls-6" d="M1838.26,418.66a6.66,6.66,0,0,1-2.36,6.13c-.88.8-1,3.83-3.16,1.75-.71-.69-.36-2.48-.5-3.78C1833.62,420.48,1835.38,418.74,1838.26,418.66Z"/><path class="cls-7" d="M1715.11,579.16c-10.34,6.22-21.75,4.77-32.7,3.43-6.11-.75-12.15-1.13-18.24-1.35,13.7-16.81,27.89-33.25,40.95-50.53,12.85-17,26.35-33.77,33.15-54.53l5.81.34c7.44,4,10.54,14.23,20.63,14.45-3.94,13.51-1.24,27.38-2.19,41-9.91.36-11.56-9.18-16.9-14.24-3.41-3.23-5.15-11.3-10.39-8.47-4.22,2.28-.44,9.24.76,14.05A502.39,502.39,0,0,1,1715.11,579.16Z"/><path class="cls-10" d="M1736,523.36c-1.2-4.81-5-11.77-.76-14.05,5.24-2.83,7,5.24,10.39,8.47,5.34,5.06,7,14.6,16.9,14.24a420.44,420.44,0,0,0,16.56,67.71c-6.71-.69-8.32-6.73-10.55-11.22-4.35-8.79-10.33-16.69-13.55-26.11-1.65-4.84-5-8.87-10.64-10C1742.72,542.4,1742.24,532.05,1736,523.36Z"/><path class="cls-4" d="M1799.48,456c-.38,23.54,6.83,45.07,17.69,65.55,1.44,2.72,3.14,5.16,3,8.36-9.72-3.38-17.78-9.88-26.86-14.45.48-17.51-1.29-35.1,2-52.53C1795.92,460,1795.25,456.67,1799.48,456Z"/><path class="cls-4" d="M1573.69,589.55c-17-3.41-27.9-14.87-37.1-28.48,14.48-1.65,28.8,1,43.2,1.63,5.79,3.15,12.89.39,18.55,4.12-3.06,9.24-12.95,11.13-18.81,17.38C1577.76,586.1,1574.74,586.76,1573.69,589.55Z"/><path class="cls-7" d="M1598.34,566.82c-5.66-3.73-12.76-1-18.55-4.12-1.2-5.54-9.44-1.91-10.29-7.9,18.49-.92,36.82-3.14,54.13-9.92a93.35,93.35,0,0,0,26-14.93c.83,5.7-3.53,8.47-6.73,11.89C1630.69,554.87,1615.21,562.09,1598.34,566.82Z"/><path class="cls-17" d="M1561,503.69l-3.54-.37-.65-2c-1.85-3.47-.69-5.93,2-8.68,6.65-6.89,15.17-10.3,23.72-13.76,4.11-.46,8.09-1.35,11.5-3.87l.81-.24c13.78-.68,27.12-5.4,41.1-4.45,5.53.37,11.09.31,12.56,7.41a23.11,23.11,0,0,1-19.61,8.79,78.09,78.09,0,0,0-39.3,8.44C1580.48,499.56,1570.34,500.25,1561,503.69Z"/><path class="cls-10" d="M1648.45,477.7c-1.47-7.1-7-7-12.56-7.41-14-1-27.32,3.77-41.11,4.45,12.43-6,25.82-6.22,39.22-6.56,3.71-.09,9.21,1.11,6.7-6.11,3.23-3.92,7.26-7.24,8.81-12.4.93-3.09,3.24-4.21,6.37-3.74C1660.64,458.49,1657.67,471.21,1648.45,477.7Z"/><path class="cls-7" d="M1492.14,583q.69,7.37,1.4,14.72c-6.28,2,0,10.21-6.13,12.28l-26.84-32.62c4-5.08,2.85-12.91,8.93-16.91A65.37,65.37,0,0,1,1492.14,583Z"/><path class="cls-10" d="M1569.5,554.8c.85,6,9.09,2.36,10.29,7.9-14.4-.66-28.72-3.28-43.2-1.63-5-1.12-9-3.42-10.86-8.54Z"/><path class="cls-11" d="M1556.79,501.29l.65,2c-19.81-.38-39-4.22-57.84-10.25l37.73-11.13C1540.19,492,1546.59,498.58,1556.79,501.29Z"/><path class="cls-9" d="M1553.11,667.37c-14.09,7.59-28.68,12.56-45,8.53-4.94-12.73-9.55-25.52-8.19-39.55l4-5.79c10.44,18.62,27.77,27.55,47.15,33.69C1552,664.53,1552.47,666.29,1553.11,667.37Z"/><path class="cls-10" d="M1504,630.56l-4,5.79L1487.41,610c6.11-2.07-.15-10.3,6.13-12.28Q1498.76,614.16,1504,630.56Z"/><path class="cls-13" d="M1556.79,501.29c-10.2-2.71-16.6-9.25-19.46-19.35l9.62-2.33c9.13,3.19,17.88,2,26.43-2.15,16.43-7.9,33.61-12.45,52-11.29,5.56.35,10.49-1.68,15.31-4.1,2.51,7.22-3,6-6.7,6.11-13.4.34-26.79.54-39.22,6.56l-.79.24c-4.44-.51-8.59-.15-11.51,3.87-8.55,3.46-17.07,6.87-23.72,13.76C1556.1,495.36,1554.94,497.82,1556.79,501.29Z"/><path class="cls-10" d="M1820,983.62c-23.38,8.85-47.39,8.11-71.18,3.11-16.65-3.51-33.69-6.6-51.83-16.06,19.68-5.71,33.6-17.67,51.08-22.1,2.71.17,5.57-.18,8.1.58,21.91,6.53,41.62,17.73,61.16,29.25C1819.28,979.53,1819.89,981.49,1820,983.62Z"/><path class="cls-7" d="M1820,983.62c-.14-2.13-.75-4.09-2.67-5.22-19.54-11.52-39.25-22.72-61.16-29.25-2.53-.76-5.39-.41-8.1-.58.25-1.32.19-3.62.79-3.81,14-4.38,22.18-17,34.45-23.75a16.26,16.26,0,0,1,3.88-1c15.37,5.44,29.32,13.23,41,24.73,1.79,14.31,5.78,28.44,3.72,43.09C1827.69,987.27,1824.87,982.58,1820,983.62Z"/><path class="cls-4" d="M1807.77,864.55c1.33.19,2.82.15,3.26,1.85.06.22-.32.56-.49.84l-2.81-2.65Z"/><path class="cls-9" d="M1736,523.36c6.25,8.69,6.73,19,8.35,29.07q-.18,9.29-.35,18.58c-4.16-.44-7.63.88-11.08,3.31-5.25,3.7-11.17,5.78-17.79,4.84A504.33,504.33,0,0,0,1736,523.36Z"/><path class="cls-18" d="M1815.52,820.23l-1.75-2.89Z"/><path class="cls-9" d="M1754.62,823.2q6.08-15.23,12.17-30.45c5.36-.76,9.21,3.77,14.27,4.08l.09,22.62C1772.58,822.66,1763.58,822.77,1754.62,823.2Z"/><path class="cls-5" d="M1781.15,819.45l-.09-22.62c8.22,2,14,10.88,24.25,8,3.4-.94,1.75,4.06,2.48,6.33l-.08.06c-2.3,0-4.65-.23-6.18,2C1795.83,819,1788.53,819.34,1781.15,819.45Z"/><path class="cls-4" d="M1801.53,813.28c1.53-2.27,3.88-2.08,6.18-2C1806.17,813.48,1805,816.71,1801.53,813.28Z"/><path class="cls-7" d="M1573.93,710.49c16.92-12.39,36.24-20.17,55.2-28.64,22-3.77,44.62-1,66.52-6a5.29,5.29,0,0,1,5.46,2C1660.16,694.32,1618.48,708,1573.93,710.49Z"/><path class="cls-6" d="M1752.31,694.18l.77.42-.76-.43Z"/><path class="cls-19" d="M1853.72,724.22a10.39,10.39,0,0,1,1,1.59,1.28,1.28,0,0,1-.12.93c-.48.87-1.06.84-1.28-.12A8.12,8.12,0,0,1,1853.72,724.22Z"/><path class="cls-10" d="M1582.48,478.85c2.92-4,7.07-4.38,11.51-3.87C1590.57,477.5,1586.59,478.39,1582.48,478.85Z"/><path class="cls-20" d="M1568.31,478s3.16,16.81,19.83,5.93a8,8,0,0,0,3.4-8.64c-2.07-8.32-7.25-23.25-17.21-19.8C1560.68,460.17,1568.31,478,1568.31,478Z"/><path class="cls-21" d="M1598.6,454.61c-.85,5.52-.88,14.1,3.45,24.53,0,0,22.11-6.32,24.73-15,0,0-6-15-18.1-17A8.87,8.87,0,0,0,1598.6,454.61Z"/><path class="cls-4" d="M1446.4,505.15c-2.94-3.84-9.17-4.34-10.25-10.07,8.48-11.19,21.91-14.56,33.59-20.21,26.1-12.6,54-19.45,82.69-24,20.51-3.25,40.66-6,61.62-4.15,10.18.91,20.94-1,31.46-1-21.86,9.32-45.32,14.06-67.24,23-10.3,4.21-22.11,3.76-31.32,10.81l-9.63,2.34-37.72,11.12c-15.47,2-29.55,9.66-45.14,11.23Z"/><ellipse class="cls-22" cx="1481.78" cy="401.92" rx="14.93" ry="21.12" transform="matrix(0.97, -0.26, 0.26, 0.97, -53.53, 396.27)"/><path class="cls-9" d="M1422,493c0-2.75-.18-5.81-2.67-7.3-14.25-8.49-22.13-22.25-30.24-35.86l-1.8-4.22c8-7.46,16.64-14.36,23.69-22.63,3.3-3.88,3.47.68,5.06.25,4.58,3.87,9.08,2.67,13.55-.21,12.8.33,24.74-5.3,37.57-5.3,3.29,0,7.65.48,10.38-2.94,4.25.58,8.6,2,12.29-1.62l-.18.22,3.48-.62,72.68-4.17c9.5-.77,19.22,2,28.55-1.73,6.32-.67,13.32,1.66,18.46-4.21,12.43,7.4,22.38,17.93,33.71,26.73,5.56,4.31,10.39,9.56,15.56,14.39-1.53,2.18-3.82,2-6.07,2-3.49-4.24-7,.28-10.46,0-10.52,0-21.28,1.87-31.46,1-21-1.87-41.11.9-61.62,4.15-28.68,4.54-56.59,11.39-82.69,24-11.68,5.65-25.11,9-33.59,20.21Z"/><ellipse class="cls-22" cx="1652.64" cy="353.69" rx="14.93" ry="21.12" transform="translate(-35.28 438.76) rotate(-14.97)"/><path class="cls-6" d="M1368.6,281.66c.48-4.45-3.51-7.39-4-11.37-1-8.53-1.58-17.11,5.87-23.6,9-.22,17.63,3.3,26.67,1.92,10.19,5.7,22,6.48,32.7,10.45,3,3.05,6.84,1.69,10.39,1.8,18.75,10.86,40,15.7,59.5,24.82,10.33,8.34,23.25,11.7,34.76,17.78,7.86,4.16,15,10.56,24.59,11a84.53,84.53,0,0,0,33,18.57c.3,2.08,1,4,2.92,5.1,15.3,9,31.52,16.49,44.54,29a10.41,10.41,0,0,0,8.44,2.69l3.67,1.67c1.42,6.57,5.18,10.51,12.17,10.81,10.51,10.43,21,20.93,35.06,26.68,6.86,13.81,20,21.32,31.09,30.82.63,14.16-7.84,24.27-15.46,34.76-4.27,3-6.32,9.65-13.34,8.2-6.67-6.54-12-14.5-20.66-18.91-3.89-8.76-12.62-13-18.47-20-5.17-4.83-10-10.08-15.56-14.39-11.33-8.8-21.28-19.33-33.71-26.73-.22-2.2-1.58-3.47-3.27-4.81-15-11.88-29.11-24.91-44.94-35.43-9-5.94-16.25-15-27.52-17.29-2.51-6.82-8-9.41-14.66-10.22-5.05-6.24-12.47-9.36-19.06-13.17-12.19-7.05-23.4-16.66-38.43-17.67-12.89-11.34-30-12.54-45.06-18.49-4.59-2.32-9.56-2-14.47-2C1393.3,279.21,1380.84,282.43,1368.6,281.66Z"/></g><g id="cercueil"><path class="cls-23" d="M288.92,993.87s-48,12-86.38-16.79l55.59-425.49s-78.38-.4-78.38-77.18-10-97.18-10-97.18,6.4-79.18,25.59-84c0,0,16.8-35.19,13.6-68.78s8-65.58,33.59-70.38,86.38-13.75,86.38-22.4,92.78,8,97.58,76.78-21.91,126.37,12.79,168,24,145.94-22.39,186.54L386.5,965.08S439.28,1041.86,288.92,993.87Z"/><path class="cls-24" d="M288.92,993.87S304.59,679,299.63,622.08a82.05,82.05,0,0,1,.2-16.36c1.75-15.37,3.19-46.49-10.91-62.93-19.19-22.4-48.79-179.16,6-233.54,0,0-4.4-142.37,34-177.56,0,0-44.79,19.2-86.38,22.4s-34.37,95.37-34.37,95.37-8.43,41.37-12.82,43.79C175.19,304.4,166,347.61,169.75,395.63s8.22,86.95,7.71,116.25c-.36,20.55,10.15,34.26,33.87,42.76,10.12,3.62,22.63,6.29,37.73,8.14,0,0-37.73-8.14-37-5.53,2.18,8.2-9.49,419.83-9.49,419.83S233.47,1006.67,288.92,993.87Z"/></g></svg>