<svg xmlns="http://www.w3.org/2000/svg" viewBox="0 0 1920.02 1082.8"><defs><style>.cls-1{fill:#f1b44e;}.cls-2{fill:#e68944;}.cls-3{fill:#fbc67d;}.cls-4{fill:#f9cc8f;}.cls-5{fill:#f9ec5e;}.cls-11,.cls-6,.cls-9{fill:#fff;}.cls-6,.cls-7,.cls-8{stroke:#000;stroke-miterlimit:10;}.cls-6,.cls-7{stroke-width:3.24px;}.cls-7,.cls-8{fill:none;}.cls-8{stroke-width:5.67px;}.cls-10{fill:#d9453b;}.cls-11{font-size:40px;font-family:Copperplate;}</style></defs><title>momie &amp;quot;&amp;quot;code bon&amp;quot;</title><g id="paysage"><rect class="cls-1" width="1920.02" height="832.7"/><path class="cls-2" d="M1919.69,758.27V1016H0V733.86s205.1-3.76,650,13.21c0,0,275.11,9.17,437.81,0,184-10.37,435.51,9.56,476.23,5.19s249.63-6.46,302.66-.22l53,6.23" transform="translate(0.02 0)"/><path class="cls-3" d="M0,743.71s1592.65,18.84,1919.71,182.08C1946.85,939.34,0,1018.25,0,1018.25Z" transform="translate(0.02 0)"/><path class="cls-4" d="M1919.69,924.26S485.23,911.56,0,1018.25v64.39H1919.69Z" transform="translate(0.02 0)"/><path class="cls-2" d="M1450.84,0a166.84,166.84,0,1,1-262.07,0" transform="translate(0.02 0)"/><path class="cls-5" d="M1434.12,0a163.42,163.42,0,1,1-258.73,0" transform="translate(0.02 0)"/></g><g id="MOMIE"><path id="pied" class="cls-6" d="M362.75,802s-51-10.86-69.64,33.9-21.34,96,9.33,102.6,85.35-15.28,82.68-22.92,20-5.46,20-5.46S369.2,852.6,362.75,802Z" transform="translate(0.02 0)"/><path id="corps" class="cls-6" d="M358.45,787.84s33.34,112.43,46.68,122.25c0,0-116,192.11,12,169.19s165.35-61.13,46.67-93.88c0,0,88-156.08,82.68-223.76s.23-143,.23-143l210.46-96s24,8.73,48-5.46c0,0,81.35,15.29,60-18.55,0,0,81.34-34.93,22.67-50.21,0,0,26.67-33.84-21.34-37.11,0,0-42.67,12-57.34,20.74,0,0,21.34-51.31-21.34-57.86,0,0-17.33,1.1-18.66,19.65s-4,66.58-45.34,85.14-180,90.6-180,90.6l-33.34-3.28V552.07s168-20.74,148-245.59c0,0-138.68-164.82-340,0,0,0-62.68,199.75,72,233.59l-6.67,31.65-60,2.18s-265.37,99.33-136,159.36c0,0-6.66,78.59,62.68,42.57s57.34-60,29.34-69.85c0,0,52-35.34,24-48.78s-53.34,32.4-53.34,32.4-13.34-20.05,12-32.4,72-8,72-8S365.12,771.47,358.45,787.84Z" transform="translate(0.02 0)"/><path class="cls-6" d="M658.49,306.48s-221-52.12-340,0c0,0-37.22-43.11-8.94-57.85s-44.4-52.39-44.4-52.39-10,13.1-17.34,14.19c0,0,40.67,22.37,37.34,27.29s-32.55,37.61,24.4,107.21c0,0,211-58.37,349,24.31" transform="translate(0.02 0)"/><path class="cls-7" d="M304.42,387.33s164.91-104.57,348,24.63" transform="translate(0.02 0)"/><path class="cls-7" d="M642.8,442.2s-197.38-62.31-338.38-25.48" transform="translate(0.02 0)"/><polyline class="cls-7" points="307.46 446.08 473.64 418.37 618.85 485.16"/><path class="cls-7" d="M315,473.32s189.05-83.9,287.27,30.85" transform="translate(0.02 0)"/><path class="cls-7" d="M345.81,517.94s174.51-25.2,225.09,10.88" transform="translate(0.02 0)"/><polyline class="cls-7" points="390.48 540.07 458.38 568.18 510.5 552.08"/><path class="cls-7" d="M543.81,569.54s10.14,36.56,2.9,49.11" transform="translate(0.02 0)"/><path class="cls-6" d="M582.6,549.5s25.46,41.81,19.67,60.53-26.94,52.29-31.37,53.1,53.59,4.1,53.59,4.1-7-12.28,5-22.11,37.52-58,16.21-71.64c0,0-3.65-46.82-17.43-47.35" transform="translate(0.02 0)"/><line class="cls-7" x1="628.29" y1="526.13" x2="582.63" y2="549.51"/><path class="cls-7" d="M383.79,571.72s99.35,6,126.68-5.46" transform="translate(0.02 0)"/><path class="cls-7" d="M323.78,573.9s-2.67,38.21,8,39.3,137-22.92,217.54-14.74" transform="translate(0.02 0)"/><path class="cls-7" d="M545.8,633.94s-172,.54-211.35,15.28" transform="translate(0.02 0)"/><path class="cls-7" d="M334.45,649.22s-12-21.29-2.67-36" transform="translate(0.02 0)"/><path class="cls-7" d="M345,693.89s105-28.3,199.29-10.29" transform="translate(0.02 0)"/><line class="cls-7" x1="545.82" y1="719.63" x2="351.68" y2="725.65"/><path class="cls-7" d="M358,762.89s130.44-18.16,187.8-7.8" transform="translate(0.02 0)"/><path class="cls-7" d="M546.56,775.83s-120.1-7.64-188.11,12" transform="translate(0.02 0)"/><path class="cls-7" d="M369.11,822.08S477,788.67,542.41,800.81" transform="translate(0.02 0)"/><polyline class="cls-8" points="510.5 812.95 491.83 818.95 493.64 927.83"/><path class="cls-7" d="M378.08,849.05s59.21-31.7,113.81-25.17" transform="translate(0.02 0)"/><path class="cls-7" d="M385.72,870.38s72.94-28.27,136.18-6.29" transform="translate(0.02 0)"/><path class="cls-7" d="M391.27,884.59s71.86-3.43,100.53,34.23" transform="translate(0.02 0)"/><path class="cls-7" d="M405.13,910.09s50.91,8.73,78.46,0" transform="translate(0.02 0)"/><path class="cls-7" d="M391.27,935.28s82.2,6.64,98.7,0" transform="translate(0.02 0)"/><path class="cls-7" d="M478.23,958.5s-64.51,15.7-100.15,4.38" transform="translate(0.02 0)"/><path class="cls-7" d="M366.33,993s54.8,2.21,97.47-7.62" transform="translate(0.02 0)"/><path class="cls-7" d="M358,1034s67.45-24,82.12-20.74L463.8,985.4" transform="translate(0.02 0)"/><path class="cls-7" d="M405.13,1081.17s-9.12-51.73,5.77-63.65" transform="translate(0.02 0)"/><path class="cls-7" d="M483.59,993.23s-37.47,59.94-43,81.45" transform="translate(0.02 0)"/><path class="cls-8" d="M345,836s24.33,57.59,45.07,74.51" transform="translate(0.02 0)"/><path class="cls-7" d="M373.12,843s-18.27,1.27-21.47,6.09c0,0-43.81-4.82-63.51,0" transform="translate(0.02 0)"/><path class="cls-7" d="M281.35,875.11s68.85-.35,85,9.4" transform="translate(0.02 0)"/><path class="cls-7" d="M279.19,898.08s65.85-2,98.89,24.93" transform="translate(0.02 0)"/><path class="cls-7" d="M358.45,931.6s-33.51-16.6-77.1-12.78" transform="translate(0.02 0)"/><path class="cls-7" d="M279.19,658.66s8.47,16.68,23.86,27.09" transform="translate(0.02 0)"/><path class="cls-7" d="M279.78,706s-19.34-4.37-21.34-9.28" transform="translate(0.02 0)"/><path class="cls-7" d="M246.94,677.6s-53.18,18.55-59.18,55.66" transform="translate(0.02 0)"/><path class="cls-7" d="M287.31,751.9s-53.62-38.45-63.63-63" transform="translate(0.02 0)"/><path class="cls-6" d="M246.94,677.6c-26.84-10.36-85.36,38.2-85.36,38.2s-41.16,9.14-40.66,22.24c0,0-23.5-11.87-12.5-18.42,0,0,10.7-15.47,44.11-29,0,0,42.58-9.18,64.82-9.59" transform="translate(0.02 0)"/><path class="cls-7" d="M166.21,664.53s72.56-2.38,80.73,7.67" transform="translate(0.02 0)"/><path class="cls-7" d="M200.43,633.94s25.34,21.07,51.51,30.34" transform="translate(0.02 0)"/><path class="cls-7" d="M233.76,615.37s46.85,16,45.43,36.36" transform="translate(0.02 0)"/><path class="cls-7" d="M281.35,591.71s25.06,26.94,15.41,57.51" transform="translate(0.02 0)"/><path class="cls-6" d="M544.24,683.6s28.14,24,61.2,25.11,43.93,33.44,46.16,43.19c0,0-26.22,5.38-23.33,13,0,0-2.25-34.93-30.35-33.84s-52.12-11.46-52.12-11.46l-1.56-36" transform="translate(0.02 0)"/><g id="sourire"><path d="M347,462.57S465.47,428.19,549,483c0,0-59.51,68.36-146,41.35C403,524.38,351.45,498.59,347,462.57Z" transform="translate(0.02 0)"/><path class="cls-9" d="M355.17,478.55s109-16,174,20l14-13.08S479,433.92,351.07,462.58Z" transform="translate(0.02 0)"/><path class="cls-10" d="M406.46,508.41s-14.5,6.55,5,13.1,69,.41,72-6.55S442,494.75,411,506.21" transform="translate(0.02 0)"/><text class="cls-11" transform="translate(1044.06 491.9)">Bravo vous avez trouvé le bon code !<tspan x="0" y="48">Vous pouvez accéder à la pièce </tspan><tspan x="0" y="96">secrete ... </tspan></text></g><path class="cls-7" d="M671.75,504.17s20,31.73,12.85,51.55" transform="translate(0.02 0)"/><path class="cls-7" d="M719,537.81s4.48-46.43-5.51-54.08" transform="translate(0.02 0)"/><path class="cls-7" d="M742.94,466.09s2.8,46.41,13.94,56.65" transform="translate(0.02 0)"/><path class="cls-7" d="M756.88,447.05s46.44-20.06,56.79-31.54" transform="translate(0.02 0)"/><path class="cls-7" d="M806.12,517.31s15.23-61.43,3.06-85.3" transform="translate(0.02 0)"/><path d="M813.67,465.27C823.82,454.34,889.21,444,889.21,444l2.5,6.44-77.81,19.9Z" transform="translate(0.02 0)"/><path d="M811,492.55c16-4.09,54.24,6,54.24,6l8.33-4.91s-55.17-11.17-61.51-8.52Z" transform="translate(0.02 0)"/><ellipse cx="398.74" cy="380.41" rx="12.41" ry="24.67"/><ellipse cx="547.96" cy="387.74" rx="11.87" ry="30.63"/></g></svg>